<svg width="22" height="22" viewBox="0 0 22 22" fill="none" xmlns="http://www.w3.org/2000/svg">
<path fill-rule="evenodd" clip-rule="evenodd" d="M6.66668 1C6.66668 0.44772 7.11439 0 7.66668 0H14.4286C14.9809 0 15.4286 0.44772 15.4286 1V2.85714H20.0476C20.5999 2.85714 21.0476 3.30486 21.0476 3.85714C21.0476 4.40943 20.5999 4.85714 20.0476 4.85714H19.1429V18.1429C19.1429 20.3142 17.4571 22 15.2857 22H6.7143C4.54296 22 2.85715 20.3142 2.85715 18.1429V4.85714H1.95239C1.40011 4.85714 0.952393 4.40943 0.952393 3.85714C0.952393 3.30486 1.40011 2.85714 1.95239 2.85714H6.66668V1ZM8.66668 2.85714H13.4286V2H8.66668V2.85714ZM4.85715 4.85714V18.1429C4.85715 19.2096 5.64753 20 6.7143 20H15.2857C16.3525 20 17.1429 19.2096 17.1429 18.1429V4.85714H4.85715ZM8.61906 7.61905C9.1713 7.61905 9.6191 8.06676 9.6191 8.61905V16.2381C9.6191 16.7904 9.1713 17.2381 8.61906 17.2381C8.06677 17.2381 7.61906 16.7904 7.61906 16.2381V8.61905C7.61906 8.06676 8.06677 7.61905 8.61906 7.61905ZM13.381 7.61905C13.9332 7.61905 14.381 8.06676 14.381 8.61905V16.2381C14.381 16.7904 13.9332 17.2381 13.381 17.2381C12.8287 17.2381 12.381 16.7904 12.381 16.2381V8.61905C12.381 8.06676 12.8287 7.61905 13.381 7.61905Z" fill="white"/>
</svg>
