<svg width="24" height="24" viewBox="0 0 24 24" fill="none" xmlns="http://www.w3.org/2000/svg">
<path d="M19.74 7.32994L15.3 2.32994C15.2065 2.22634 15.0924 2.14347 14.9649 2.08663C14.8375 2.0298 14.6995 2.00027 14.56 1.99994H6.56C6.22775 1.99597 5.89797 2.0575 5.5895 2.18099C5.28103 2.30449 4.9999 2.48754 4.76218 2.71969C4.52446 2.95184 4.33479 3.22855 4.20402 3.534C4.07324 3.83946 4.00392 4.16768 4 4.49994V19.4999C4.00392 19.8322 4.07324 20.1604 4.20402 20.4659C4.33479 20.7713 4.52446 21.048 4.76218 21.2802C4.9999 21.5123 5.28103 21.6954 5.5895 21.8189C5.89797 21.9424 6.22775 22.0039 6.56 21.9999H17.44C17.7723 22.0039 18.102 21.9424 18.4105 21.8189C18.719 21.6954 19.0001 21.5123 19.2378 21.2802C19.4755 21.048 19.6652 20.7713 19.796 20.4659C19.9268 20.1604 19.9961 19.8322 20 19.4999V7.99994C19.9994 7.7521 19.9067 7.51333 19.74 7.32994ZM14 3.99994L17.74 7.99994H14.74C14.6353 7.99361 14.5329 7.9665 14.4387 7.92017C14.3446 7.87384 14.2607 7.80923 14.1918 7.7301C14.1229 7.65097 14.0704 7.55892 14.0375 7.45931C14.0046 7.3597 13.9918 7.25453 14 7.14994V3.99994Z" fill="white"/>
</svg>
