<svg width="128" height="98" viewBox="0 0 128 98" fill="none" xmlns="http://www.w3.org/2000/svg">
<path d="M127.284 35.9168C96.3161 -4.793 45.3615 -18.6533 0.233515 35.9184C0.0966319 36.0839 0.0793537 36.3287 0.193617 36.5106C15.9082 61.5245 31.7423 67.8385 63.0006 72.6253C63.2731 72.667 63.5347 72.4752 63.5777 72.2028C66.2917 55.0075 71.1146 47.1625 87.6991 38.3606C87.8783 38.2654 87.987 38.0637 87.966 37.8619C85.8326 17.3982 70.4319 12.0334 52.0594 15.9872C52.0202 15.9956 51.9811 16.0092 51.9451 16.0268C34.7019 24.4619 33.2424 47.1597 53.0444 58.094C53.5718 58.3852 53.2463 59.3818 52.6566 59.2583C35.3456 55.6343 26.2438 50.6059 15.2598 36.5355C15.1109 36.3447 15.1222 36.0656 15.2851 35.8866C47.1896 0.829466 89.4016 10.7352 111.868 35.0585C111.953 35.1505 112 35.2709 112 35.3962V37.8989C112 38.0849 112.103 38.2555 112.268 38.3418L122.102 43.4927C122.328 43.6114 122.608 43.5399 122.75 43.3271L127.303 36.497C127.421 36.32 127.413 36.0861 127.284 35.9168Z" fill="black"/>
<path d="M65.4664 24.0694C56.0925 25.3042 52.9465 26.646 52.0243 36.2394C52.0082 36.4074 51.9528 36.5743 51.8623 36.7168C51.3096 37.587 49.995 37.2272 50.0007 36.1964C50.0599 25.3031 54.1482 22.1286 65.3458 22.0039C66.1344 21.9951 66.6345 22.8401 66.256 23.532C66.0952 23.826 65.7987 24.0256 65.4664 24.0694Z" fill="white" stroke="white"/>
<circle cx="99.5" cy="70.5" r="27.5" fill="black"/>
<path d="M103.8 60H92.6C92.4078 60 92.3262 60.2447 92.48 60.36L95.92 62.94C95.9704 62.9778 96 63.037 96 63.1V87.8C96 87.9105 96.0895 88 96.2 88H103.8C103.91 88 104 87.9105 104 87.8V60.2C104 60.0895 103.91 60 103.8 60Z" fill="white"/>
<circle cx="100" cy="53" r="4" fill="white"/>
</svg>
