<svg width="1476" height="951" viewBox="0 0 1476 951" fill="none" xmlns="http://www.w3.org/2000/svg">
                        <rect width="1476" height="950.427" fill="white"/>
                        <path d="M1165.37 319.602L1150.44 391.923L1140.83 382.545L1124.47 394.217L1111.97 378.691L1083.95 399.069L1060 359.016L1033.29 374.666L1022.69 360.061L988.771 379.175L978.566 357.315L1002.35 242.147L1129.82 268.47L1165.37 319.602Z" fill="#EBEBEB"/>
                        <path d="M1129.84 268.471L1165.38 319.603L1121.16 310.475L1129.84 268.471Z" fill="#DBDBDB"/>
                        <path d="M1147.26 406.372L1125.37 512.475L953.652 477.024L975.388 371.78L985.592 393.624L1019.53 374.51L1030.11 389.115L1056.84 373.481L1080.77 413.534L1108.81 393.156L1121.29 408.666L1137.66 397.01L1147.26 406.372Z" fill="#EBEBEB"/>
                        <path d="M901.472 393.935L726.481 404.763L712.578 180.138L842.523 172.087L890.222 212.109L901.472 393.935Z" fill="#EBEBEB"/>
                        <path d="M842.566 172.087L890.266 212.109L845.203 214.902L842.566 172.087Z" fill="#DBDBDB"/>
                        <path d="M794.086 323.237L793.399 318.166C791.636 307.665 794.507 295.916 803.635 283.636C811.874 272.714 816.336 264.912 815.837 256.049C815.275 246.063 808.644 239.759 796.301 240.259C789.248 240.625 782.473 243.128 776.875 247.436L771.492 235.375C777.734 230.304 788.656 226.559 799.032 226.013C821.548 224.765 832.501 238.09 833.359 252.96C834.108 266.269 827.212 276.271 818.443 287.958C810.391 298.615 807.754 307.4 808.893 317.339L809.377 322.426L794.086 323.237ZM791.308 350.871C790.903 343.631 795.506 338.263 802.356 337.889C809.205 337.514 814.198 342.32 814.604 349.576C814.979 356.425 810.781 361.949 803.541 362.355C796.629 362.745 791.636 357.72 791.246 350.871H791.308Z" fill="#DBDBDB"/>
                        <path d="M356.373 285.023L338.772 277.05L336.323 282.433C335.961 283.202 335.397 283.859 334.69 284.332C333.984 284.804 333.162 285.076 332.313 285.117C331.345 285.149 330.381 285.242 329.426 285.398C328.588 285.522 327.731 285.417 326.948 285.093C326.165 284.768 325.484 284.237 324.979 283.557L321.531 278.735L305.818 290.001L309.267 294.822C309.746 295.518 310.028 296.331 310.083 297.174C310.138 298.018 309.964 298.86 309.579 299.612C309.134 300.471 308.733 301.351 308.377 302.249C308.068 303.042 307.549 303.735 306.875 304.255C306.202 304.774 305.399 305.101 304.554 305.198L298.672 305.776L300.56 325.015L306.474 324.422C307.322 324.354 308.172 324.519 308.934 324.898C309.695 325.277 310.339 325.857 310.796 326.575C311.045 326.981 311.311 327.371 311.591 327.761C311.872 328.151 312.153 328.525 312.45 328.9C312.988 329.555 313.334 330.347 313.45 331.187C313.566 332.027 313.446 332.883 313.105 333.659L310.64 339.089L328.256 347.078L330.705 341.663C331.071 340.895 331.638 340.24 332.348 339.77C333.057 339.3 333.881 339.032 334.731 338.995C335.687 338.956 336.641 338.862 337.587 338.714C338.425 338.59 339.282 338.695 340.065 339.02C340.848 339.344 341.528 339.875 342.033 340.556L345.482 345.377L361.21 334.111L357.762 329.29C357.267 328.6 356.976 327.786 356.921 326.939C356.866 326.093 357.049 325.248 357.45 324.5C357.884 323.647 358.275 322.772 358.62 321.878C358.92 321.08 359.437 320.381 360.112 319.86C360.787 319.339 361.594 319.017 362.443 318.929L368.356 318.336L366.453 299.098L360.539 299.675C359.696 299.749 358.849 299.588 358.092 299.211C357.335 298.834 356.697 298.255 356.248 297.537C355.983 297.132 355.718 296.741 355.437 296.351C355.156 295.961 354.875 295.571 354.579 295.212C354.044 294.549 353.7 293.752 353.585 292.908C353.469 292.064 353.586 291.205 353.923 290.422L356.373 285.023ZM346.387 302.827C348.211 305.373 349.24 308.403 349.342 311.534C349.445 314.665 348.616 317.756 346.962 320.416C345.308 323.076 342.902 325.186 340.048 326.478C337.195 327.771 334.022 328.188 330.931 327.677C327.841 327.166 324.971 325.751 322.685 323.609C320.399 321.467 318.8 318.695 318.089 315.644C317.378 312.594 317.588 309.401 318.693 306.469C319.797 303.538 321.746 300.999 324.293 299.176C327.707 296.73 331.952 295.742 336.096 296.426C340.239 297.111 343.941 299.413 346.387 302.827V302.827Z" fill="#EBEBEB"/>
                        <path d="M1152.01 540.294L1140.27 547.066L1142.35 550.655C1142.66 551.17 1142.81 551.763 1142.79 552.364C1142.77 552.964 1142.58 553.547 1142.24 554.041C1141.88 554.602 1141.54 555.18 1141.22 555.788C1140.97 556.327 1140.56 556.78 1140.06 557.095C1139.55 557.411 1138.97 557.574 1138.37 557.567H1134.25V571.126H1138.4C1139 571.119 1139.58 571.283 1140.09 571.598C1140.59 571.913 1141 572.367 1141.26 572.905C1141.57 573.514 1141.91 574.091 1142.27 574.653C1142.61 575.147 1142.8 575.729 1142.82 576.33C1142.84 576.93 1142.69 577.524 1142.38 578.039L1140.3 581.627L1152.04 588.399L1154.13 584.795C1154.43 584.284 1154.87 583.867 1155.4 583.591C1155.92 583.316 1156.52 583.192 1157.11 583.235H1159.11C1159.7 583.194 1160.29 583.318 1160.82 583.594C1161.34 583.869 1161.78 584.285 1162.09 584.795L1164.18 588.415L1175.9 581.643L1173.82 578.039C1173.52 577.521 1173.38 576.931 1173.4 576.336C1173.42 575.74 1173.61 575.163 1173.94 574.668C1174.3 574.107 1174.65 573.514 1174.96 572.921C1175.22 572.382 1175.62 571.929 1176.13 571.614C1176.63 571.298 1177.22 571.135 1177.81 571.142H1181.96V557.583H1177.78C1177.19 557.59 1176.6 557.426 1176.1 557.111C1175.59 556.796 1175.18 556.342 1174.93 555.804C1174.62 555.211 1174.27 554.618 1173.91 554.056C1173.58 553.562 1173.39 552.984 1173.37 552.389C1173.35 551.793 1173.49 551.204 1173.79 550.686L1175.86 547.082L1164.15 540.31L1162.06 543.867C1161.75 544.379 1161.31 544.795 1160.79 545.071C1160.26 545.347 1159.67 545.47 1159.07 545.428H1158.08H1157.08C1156.48 545.468 1155.89 545.343 1155.36 545.068C1154.83 544.793 1154.39 544.377 1154.08 543.867L1152.01 540.294ZM1158.08 553.245C1160.27 553.242 1162.42 553.891 1164.25 555.111C1166.08 556.33 1167.51 558.065 1168.35 560.096C1169.2 562.126 1169.42 564.362 1168.99 566.518C1168.56 568.675 1167.5 570.655 1165.95 572.21C1164.39 573.765 1162.41 574.823 1160.26 575.251C1158.1 575.68 1155.86 575.458 1153.83 574.615C1151.8 573.773 1150.07 572.346 1148.85 570.517C1147.63 568.688 1146.98 566.537 1146.98 564.339C1146.98 562.881 1147.27 561.436 1147.82 560.089C1148.38 558.741 1149.2 557.516 1150.23 556.484C1151.26 555.452 1152.48 554.634 1153.83 554.075C1155.17 553.517 1156.62 553.229 1158.08 553.229V553.245Z" fill="#EBEBEB"/>
                        <path d="M391.982 227.371L381.232 235.61L383.713 238.902C384.083 239.371 384.31 239.937 384.368 240.531C384.426 241.126 384.313 241.725 384.04 242.257C383.742 242.864 383.481 243.49 383.26 244.129C383.068 244.693 382.722 245.191 382.262 245.569C381.801 245.947 381.245 246.188 380.654 246.267L376.535 246.797L378.283 260.232L382.402 259.701C383.002 259.618 383.613 259.705 384.165 259.954C384.717 260.202 385.188 260.601 385.523 261.106C385.898 261.648 386.305 262.169 386.74 262.666C387.142 263.108 387.408 263.656 387.508 264.245C387.607 264.834 387.536 265.44 387.301 265.989L385.741 269.828L398.224 275.024L399.784 271.185C400.016 270.635 400.398 270.16 400.886 269.815C401.374 269.471 401.949 269.27 402.546 269.235L403.545 269.126L404.528 268.97C405.105 268.861 405.701 268.912 406.251 269.119C406.802 269.325 407.285 269.678 407.648 270.14L410.192 273.463L420.942 265.225L418.43 261.933C418.067 261.457 417.844 260.889 417.786 260.294C417.729 259.699 417.838 259.099 418.102 258.562C418.398 257.959 418.659 257.339 418.883 256.705C419.075 256.142 419.421 255.643 419.881 255.266C420.341 254.888 420.898 254.646 421.488 254.568L425.608 254.037L423.86 240.603L419.741 241.133C419.143 241.219 418.533 241.133 417.981 240.888C417.429 240.642 416.957 240.246 416.62 239.745C416.23 239.183 415.824 238.652 415.387 238.184C415.024 237.733 414.789 237.192 414.706 236.618C414.624 236.044 414.698 235.459 414.919 234.923L416.48 231.085L403.997 225.889L402.437 229.727C402.201 230.276 401.819 230.748 401.331 231.093C400.844 231.437 400.27 231.64 399.675 231.678L398.676 231.771L397.756 231.803C397.178 231.911 396.582 231.86 396.032 231.654C395.482 231.447 394.999 231.094 394.635 230.632L391.982 227.371ZM399.675 239.433C401.848 239.153 404.056 239.524 406.019 240.498C407.982 241.471 409.613 243.005 410.706 244.904C411.798 246.804 412.304 248.984 412.159 251.171C412.014 253.358 411.224 255.452 409.89 257.191C408.556 258.929 406.737 260.233 404.662 260.939C402.587 261.645 400.35 261.72 398.233 261.156C396.115 260.592 394.212 259.413 392.764 257.768C391.315 256.124 390.387 254.087 390.094 251.915C389.899 250.466 389.993 248.992 390.37 247.579C390.746 246.166 391.398 244.842 392.289 243.681C393.179 242.521 394.29 241.549 395.558 240.82C396.825 240.09 398.224 239.619 399.675 239.433Z" fill="#EBEBEB"/>
                        <path d="M311.678 579.412C312.264 564.328 312.056 549.224 311.054 534.162C308.822 503.061 304.078 472.19 296.871 441.853C292.908 424.783 288.039 407.994 282.953 391.22C282.797 390.705 281.985 390.846 282.126 391.376C297.838 450.513 310.727 511.522 309.837 572.999C309.587 590.163 307.59 607.092 305.968 624.193C305.968 624.646 306.67 624.833 306.779 624.365C310.009 609.682 311.07 594.36 311.678 579.412Z" fill="#EBEBEB"/>
                        <path d="M282.149 391.329C282.149 391.329 258.369 451.714 263.69 465.85C269.011 479.987 279.996 483.014 279.996 483.014C279.996 483.014 265.438 503.798 275.611 523.286C285.784 542.775 308.378 541.854 309.938 563.948C309.892 564.058 311.14 471.67 282.149 391.329Z" fill="#EBEBEB"/>
                        <path d="M307.259 525.909C307.297 525.809 307.297 525.697 307.259 525.597C304.138 484.371 296.402 443.626 284.197 404.125C284.197 404.016 283.963 404.047 283.994 404.125C288.706 421.809 292.867 439.565 296.477 457.395C293.28 454.366 289.374 452.188 285.118 451.06C285.118 451.06 284.993 451.154 285.118 451.185C289.59 452.823 293.61 455.497 296.851 458.986C297.538 462.497 298.225 465.992 298.864 469.503C293.544 463.558 286.179 460.609 278.798 457.801C278.782 457.808 278.767 457.82 278.757 457.835C278.748 457.85 278.742 457.868 278.742 457.886C278.742 457.905 278.748 457.922 278.757 457.938C278.767 457.953 278.782 457.965 278.798 457.972C286.491 461.093 294.136 465.118 299.348 471.75C301.158 481.767 302.749 491.821 304.123 501.911C300.281 497.886 295.354 495.062 289.939 493.782C289.768 493.782 289.674 493.985 289.846 494.031C295.408 495.669 300.374 498.89 304.138 503.3H304.232C304.7 506.837 305.147 510.389 305.574 513.957C302.602 511.442 299.246 509.419 295.634 507.965C295.541 507.965 295.478 508.074 295.634 508.106C299.32 509.702 302.695 511.937 305.605 514.706C305.605 514.706 305.683 514.706 305.73 514.706C306.12 518.092 306.51 521.478 306.853 524.864C301.495 518.386 294.542 513.417 286.678 510.446C286.645 510.446 286.613 510.459 286.59 510.483C286.566 510.506 286.553 510.538 286.553 510.571C286.553 510.604 286.566 510.636 286.59 510.659C286.613 510.683 286.645 510.696 286.678 510.696C294.443 514.118 301.263 519.37 306.557 526.003C306.615 526.075 306.694 526.129 306.783 526.157C306.871 526.185 306.967 526.185 307.056 526.159C307.571 531.355 308.039 536.55 308.413 541.762C308.413 541.84 308.538 541.84 308.538 541.762C308.133 536.53 307.706 531.245 307.259 525.909Z" fill="white"/>
                        <path d="M288.144 445.115C283.838 442.434 278.918 440.898 273.851 440.652C273.827 440.652 273.803 440.662 273.785 440.68C273.768 440.697 273.758 440.721 273.758 440.746C273.758 440.771 273.768 440.794 273.785 440.812C273.803 440.829 273.827 440.839 273.851 440.839C278.75 441.768 283.503 443.342 287.988 445.52C288.175 445.567 288.316 445.239 288.144 445.115Z" fill="white"/>
                        <path d="M291.038 509.042C287.728 507.143 284.083 505.898 280.303 505.375C280.178 505.375 280.162 505.547 280.303 505.578C283.994 506.319 287.565 507.569 290.913 509.292C291.053 509.37 291.178 509.12 291.038 509.042Z" fill="white"/>
                        <path d="M374.205 466.898C364.145 473.852 354.906 481.924 346.665 490.959C338.166 500.525 331.61 511.654 327.364 523.726C318.326 548.875 313.466 575.335 312.978 602.054C312.674 616.851 314.093 631.633 317.206 646.102C317.231 646.208 317.296 646.299 317.387 646.358C317.478 646.417 317.588 646.438 317.694 646.418C317.8 646.398 317.895 646.338 317.958 646.25C318.021 646.162 318.048 646.054 318.033 645.946C314.16 620.413 314.307 594.432 318.47 568.944C322.558 543.979 328.971 516.798 344.855 496.498C353.499 485.435 364.281 476.744 374.938 467.757C375.5 467.257 374.782 466.493 374.205 466.898Z" fill="#EBEBEB"/>
                        <path d="M316.5 584.047C322.226 574.785 328.955 566.183 336.566 558.395C348.471 546.49 358.489 538.033 360.049 530.169C361.609 522.305 348.128 516.5 348.128 516.5C348.128 516.5 364.589 519.465 369.099 512.553C373.608 505.64 375.777 465.602 375.777 465.602C375.777 465.602 345.819 486.994 331.854 516.984C317.889 546.974 316.5 584.047 316.5 584.047Z" fill="#EBEBEB"/>
                        <path d="M365.033 503.158C363.06 502.865 361.06 502.796 359.072 502.955C358.838 502.955 358.854 503.361 359.072 503.377C361.038 503.377 363.02 503.283 364.986 503.377C365.008 503.371 365.029 503.359 365.045 503.342C365.061 503.325 365.072 503.305 365.077 503.282C365.082 503.259 365.08 503.236 365.072 503.214C365.064 503.192 365.051 503.173 365.033 503.158V503.158Z" fill="white"/>
                        <path d="M343.518 541.995C340.355 542.059 337.228 542.683 334.281 543.836C334.281 543.836 334.281 543.992 334.281 543.977C337.402 543.243 340.413 542.947 343.503 542.416C343.543 542.399 343.578 542.37 343.602 542.333C343.627 542.297 343.641 542.254 343.643 542.21C343.644 542.166 343.634 542.123 343.612 542.085C343.59 542.047 343.557 542.015 343.518 541.995V541.995Z" fill="white"/>
                        <path d="M337.01 528.577C335.696 528.566 334.385 528.681 333.093 528.92C333.069 528.929 333.049 528.945 333.034 528.966C333.02 528.987 333.012 529.012 333.012 529.037C333.012 529.063 333.02 529.087 333.034 529.108C333.049 529.129 333.069 529.145 333.093 529.154C334.401 529.23 335.713 529.172 337.01 528.982C337.063 528.982 337.115 528.961 337.153 528.923C337.191 528.885 337.212 528.833 337.212 528.78C337.212 528.726 337.191 528.674 337.153 528.636C337.115 528.598 337.063 528.577 337.01 528.577V528.577Z" fill="white"/>
                        <path d="M228.648 509.37C238.399 512.675 247.743 517.078 256.5 522.492C265.586 528.266 273.466 535.748 279.702 544.524C292.823 562.788 302.869 583.075 309.442 604.581C313.108 616.489 315.37 628.785 316.183 641.218C316.166 641.298 316.121 641.37 316.057 641.422C315.994 641.474 315.914 641.502 315.832 641.502C315.749 641.502 315.67 641.474 315.606 641.422C315.542 641.37 315.498 641.298 315.48 641.218C312.726 619.661 306.608 598.669 297.349 579.007C288.253 559.737 276.784 539.235 259.246 526.471C249.697 519.528 238.962 514.971 228.258 510.166C227.696 509.978 228.086 509.183 228.648 509.37Z" fill="#EBEBEB"/>
                        <path d="M302.454 590.833C295.675 584.665 288.24 579.26 280.282 574.715C267.893 567.834 257.828 563.309 254.755 557.302C251.681 551.294 261.246 543.493 261.246 543.493C261.246 543.493 248.607 549.734 243.364 545.131C238.121 540.528 227.105 508.697 227.105 508.697C227.105 508.697 256.299 519.073 274.508 540.122C292.717 561.171 302.454 590.833 302.454 590.833Z" fill="#EBEBEB"/>
                        <path d="M278.242 561.531C275.372 561.331 272.49 561.686 269.754 562.576C269.754 562.576 269.754 562.717 269.754 562.701C272.545 562.223 275.365 561.931 278.195 561.828C278.398 561.828 278.445 561.547 278.242 561.531Z" fill="white"/>
                        <path d="M252.751 528.138C251.442 528.031 250.124 528.105 248.835 528.357C248.694 528.357 248.741 528.606 248.835 528.591C250.13 528.45 251.394 528.497 252.673 528.466C252.713 528.468 252.752 528.455 252.784 528.431C252.815 528.407 252.838 528.373 252.847 528.334C252.856 528.296 252.852 528.255 252.834 528.219C252.817 528.183 252.787 528.155 252.751 528.138V528.138Z" fill="white"/>
                        <path d="M340.088 681.458H274.195L283.589 612.632L285.991 594.985H328.292L330.695 612.632L340.088 681.458Z" fill="#DBDBDB"/>
                        <path d="M330.731 612.632H283.625L286.028 594.985H328.328L330.731 612.632Z" fill="#C7C7C7"/>
                        <path d="M334.354 588.869H279.961V603.817H334.354V588.869Z" fill="#DBDBDB"/>
                        <path d="M232.281 681.46L350.882 681.086L469.483 680.945L706.684 680.68L943.886 680.945L1062.49 681.086L1181.09 681.46L1062.49 681.85L943.886 681.975L706.684 682.24L469.483 681.975L350.882 681.835L232.281 681.46Z" fill="#263238"/>
                        <path d="M709.882 797.749C956.979 797.749 1157.29 775.8 1157.29 748.724C1157.29 721.648 956.979 699.698 709.882 699.698C462.785 699.698 262.473 721.648 262.473 748.724C262.473 775.8 462.785 797.749 709.882 797.749Z" fill="#EBEBEB"/>
                        <path d="M605.711 740.61C602.075 741.842 497.83 742.17 493.835 739.705C492.275 738.769 491.385 723.587 490.715 705.206C490.574 701.243 490.465 697.139 490.371 692.988L482.055 637.378L551.755 636.926L558.324 692.552L558.058 704.785C558.058 704.785 598.034 722.494 602.122 725.709C606.21 728.923 609.347 739.377 605.711 740.61Z" fill="#EB9481"/>
                        <path d="M605.687 740.612C602.052 741.845 497.806 742.172 493.812 739.707C491.971 738.553 490.972 716.38 490.41 692.991L558.222 692.554L557.957 704.787C557.957 704.787 597.933 722.497 602.021 725.711C606.109 728.925 609.323 739.379 605.687 740.612Z" fill="white"/>
                        <path d="M605.7 740.61C602.064 741.843 497.818 742.17 493.824 739.705C492.263 738.769 491.374 723.587 490.703 705.206L557.907 704.785C557.907 704.785 597.882 722.494 601.97 725.709C606.058 728.923 609.335 739.377 605.7 740.61Z" fill="#A6A6A6"/>
                        <path d="M604.178 736.446C586.702 736.072 516.175 736.243 498.871 737.211C498.731 737.211 498.731 737.304 498.871 737.32C516.191 738.053 586.718 737.32 604.178 736.727C604.552 736.711 604.552 736.446 604.178 736.446Z" fill="#263238"/>
                        <path d="M595.285 721.98C593.342 721.937 591.41 722.297 589.614 723.038C587.817 723.779 586.193 724.886 584.846 726.287C582.391 728.788 581.004 732.144 580.977 735.649C580.977 735.758 581.164 735.758 581.179 735.649C581.76 732.197 583.441 729.025 585.971 726.606C588.502 724.188 591.747 722.653 595.222 722.23C595.255 722.238 595.291 722.233 595.32 722.216C595.349 722.198 595.37 722.17 595.378 722.136C595.387 722.103 595.381 722.068 595.364 722.039C595.346 722.01 595.318 721.989 595.285 721.98V721.98Z" fill="#263238"/>
                        <path d="M564.738 706.502C557.748 706.424 549.649 708.921 545.312 714.663C545.156 714.881 545.468 715.115 545.671 715.006C551.778 711.782 558.212 709.219 564.863 707.36C564.966 707.332 565.055 707.268 565.113 707.178C565.171 707.089 565.195 706.982 565.18 706.876C565.164 706.771 565.111 706.674 565.03 706.606C564.948 706.537 564.844 706.5 564.738 706.502V706.502Z" fill="#263238"/>
                        <path d="M570.167 708.577C563.161 708.577 555.063 711.011 550.741 716.737C550.569 716.971 550.881 717.205 551.1 717.096C557.198 713.861 563.628 711.292 570.276 709.435C570.378 709.407 570.466 709.344 570.524 709.256C570.583 709.168 570.607 709.063 570.594 708.958C570.581 708.854 570.53 708.758 570.452 708.688C570.373 708.618 570.272 708.578 570.167 708.577V708.577Z" fill="#263238"/>
                        <path d="M575.582 710.668C568.591 710.668 560.493 713.087 556.155 718.829C555.999 719.047 556.312 719.281 556.514 719.172C562.622 715.948 569.055 713.385 575.706 711.526C575.809 711.498 575.898 711.433 575.957 711.344C576.015 711.255 576.039 711.147 576.023 711.042C576.008 710.936 575.955 710.84 575.873 710.771C575.792 710.702 575.688 710.666 575.582 710.668Z" fill="#263238"/>
                        <path d="M580.963 712.758C573.957 712.68 565.858 715.177 561.536 720.919C561.365 721.137 561.692 721.371 561.895 721.262C568.001 718.036 574.435 715.473 581.087 713.616C581.19 713.588 581.279 713.523 581.338 713.434C581.396 713.345 581.42 713.238 581.404 713.132C581.389 713.027 581.336 712.93 581.254 712.861C581.173 712.793 581.069 712.756 580.963 712.758V712.758Z" fill="#263238"/>
                        <path d="M503.25 720.591C495.448 720.591 495.448 732.839 503.25 732.792C511.051 732.746 511.114 720.544 503.25 720.591Z" fill="#263238"/>
                        <path d="M572.235 687.81C568.693 684.877 564.23 687.81 562.062 690.822C558.451 696.144 556.299 702.321 555.82 708.734C555.82 708.875 555.93 708.937 556.039 708.937C556.066 709.069 556.125 709.193 556.211 709.297C556.296 709.402 556.405 709.484 556.529 709.538C556.653 709.591 556.788 709.614 556.923 709.605C557.057 709.595 557.187 709.554 557.303 709.483C562.264 706.035 568.007 702.946 571.767 698.062C573.905 695.222 575.652 690.541 572.235 687.81ZM563.716 702.696C561.313 704.459 558.832 706.097 556.491 707.954C557.74 704.459 558.816 700.933 560.408 697.562C561.143 695.946 561.988 694.382 562.935 692.881C564.496 690.556 571.299 684.69 572.017 692.288C572.422 696.455 566.571 700.605 563.716 702.696Z" fill="#263238"/>
                        <path d="M538.397 711.387C544.483 712.292 550.771 710.544 556.747 709.593C556.877 709.559 556.997 709.495 557.097 709.406C557.198 709.318 557.277 709.207 557.327 709.082C557.377 708.958 557.397 708.824 557.386 708.69C557.374 708.556 557.332 708.427 557.262 708.313C557.284 708.296 557.303 708.273 557.315 708.247C557.328 708.222 557.335 708.193 557.335 708.165C557.335 708.136 557.328 708.108 557.315 708.082C557.303 708.057 557.284 708.034 557.262 708.017C552.46 703.734 546.616 700.791 540.317 699.482C536.634 698.779 531.423 699.794 530.955 704.365C530.393 708.672 534.84 710.825 538.397 711.387ZM534.153 707.424C529.472 701.432 538.413 700.917 541.097 701.541C542.838 701.977 544.548 702.529 546.215 703.195C549.627 704.61 552.966 706.199 556.216 707.954C553.252 708.251 550.334 708.781 547.385 709.187C543.859 709.655 536.775 710.716 534.153 707.424V707.424Z" fill="#263238"/>
                        <path d="M379.57 380.347C379.57 380.347 460.505 518.03 462.674 527.704C465.997 542.559 483.613 689.246 483.613 689.246L567.871 687.685C567.871 687.685 553.36 558.349 539.614 515.737C529.721 485.045 458.289 383.249 458.289 383.249L379.57 380.347Z" fill="#37474F"/>
                        <path d="M560.188 674.826C548.096 674.733 505.233 674.249 489.131 675.747C489.006 675.747 489.022 675.965 489.131 675.981C494.67 676.777 548.08 675.544 560.173 675.154C560.198 675.163 560.225 675.166 560.252 675.163C560.278 675.16 560.304 675.15 560.326 675.135C560.349 675.121 560.367 675.101 560.38 675.077C560.394 675.054 560.401 675.028 560.402 675.001C560.404 674.974 560.399 674.947 560.388 674.923C560.377 674.898 560.36 674.877 560.339 674.86C560.319 674.843 560.294 674.831 560.268 674.825C560.242 674.819 560.214 674.82 560.188 674.826V674.826Z" fill="#263238"/>
                        <path d="M393.345 392.983C398.65 401.299 404.267 409.444 409.666 417.698C415.065 425.953 420.495 434.207 425.846 442.445C436.519 459.089 446.921 475.842 457.053 492.704C461.998 500.52 466.228 508.766 469.692 517.341C472.854 525.919 475.23 534.766 476.791 543.773C478.445 552.808 479.537 561.935 480.552 571.063C481.592 580.769 482.679 590.479 483.813 600.195C486.028 620.073 488.249 639.952 490.475 659.831C490.741 662.265 491.006 664.699 491.256 667.149C491.256 667.508 490.647 667.57 490.6 667.149C488.119 647.41 486.06 627.594 483.813 607.856C482.689 598.005 481.571 588.159 480.458 578.319C479.413 569.16 478.414 559.985 476.994 550.888C475.691 541.909 473.709 533.042 471.065 524.363C468.151 515.376 464.247 506.741 459.425 498.617C449.673 481.781 439.343 465.242 429.014 448.687C418.685 432.131 408.074 415.436 397.183 399.084C395.841 397.071 394.484 395.058 393.08 393.076C392.97 392.967 393.251 392.827 393.345 392.983Z" fill="#263238"/>
                        <path d="M406.076 748.724C402.237 748.49 303.094 708.327 300.348 704.52C300.225 704.296 300.171 704.041 300.192 703.786C300.192 700.369 307.073 688.448 312.815 672.783C313.174 671.784 315.733 667.134 319.275 660.877C329.12 643.729 346.284 614.192 346.284 614.192L411.084 639.938L380.065 686.357L375.244 697.592C375.244 697.592 405.655 729.032 408.213 733.479C410.772 737.926 409.899 748.942 406.076 748.724Z" fill="#EB9481"/>
                        <path d="M406.076 748.724C402.237 748.49 303.094 708.327 300.348 704.52C300.225 704.296 300.171 704.041 300.192 703.787C300.192 700.369 307.073 688.449 312.815 672.783C313.174 671.784 315.733 667.134 319.275 660.877L380.128 686.358L375.306 697.592C375.306 697.592 405.717 729.033 408.276 733.48C410.835 737.927 409.899 748.943 406.076 748.724Z" fill="white"/>
                        <path d="M406.07 748.723C402.232 748.489 303.088 708.326 300.342 704.519C299.281 703.068 303.712 689.54 312.825 672.782L375.238 697.607C375.238 697.607 405.649 729.016 408.223 733.494C410.798 737.972 409.893 748.942 406.07 748.723Z" fill="#A6A6A6"/>
                        <path d="M406.263 744.292C390.207 737.395 324.766 711.088 308.367 705.502C308.227 705.502 308.196 705.502 308.367 705.596C324.142 712.773 389.785 738.55 406.2 744.604C406.512 744.682 406.606 744.432 406.263 744.292Z" fill="#263238"/>
                        <path d="M403.424 727.55C401.643 726.768 399.72 726.364 397.775 726.364C395.831 726.364 393.907 726.768 392.127 727.55C388.926 728.952 386.388 731.534 385.043 734.759C385.043 734.852 385.183 734.93 385.23 734.837C387.07 731.845 389.829 729.53 393.095 728.239C396.361 726.948 399.958 726.75 403.346 727.675C403.372 727.668 403.394 727.651 403.409 727.628C403.423 727.605 403.429 727.577 403.424 727.55V727.55Z" fill="#263238"/>
                        <path d="M380.897 701.743C374.452 699.043 365.995 698.326 359.832 702.024C359.598 702.164 359.832 702.492 360.035 702.476C366.906 701.779 373.831 701.816 380.694 702.585C380.799 702.597 380.906 702.57 380.992 702.508C381.079 702.447 381.141 702.357 381.166 702.253C381.191 702.15 381.177 702.041 381.127 701.947C381.078 701.853 380.996 701.781 380.897 701.743Z" fill="#263238"/>
                        <path d="M385.147 705.706C378.702 703.006 370.245 702.289 364.082 705.987C363.848 706.127 364.082 706.455 364.285 706.439C371.155 705.734 378.081 705.771 384.944 706.548C385.049 706.56 385.156 706.532 385.242 706.471C385.329 706.41 385.391 706.319 385.416 706.216C385.441 706.113 385.427 706.004 385.377 705.91C385.328 705.816 385.246 705.744 385.147 705.706Z" fill="#263238"/>
                        <path d="M389.408 709.669C382.948 706.969 374.491 706.251 368.343 709.949C368.094 710.09 368.343 710.418 368.531 710.402C375.401 709.697 382.327 709.734 389.189 710.511C389.297 710.529 389.408 710.506 389.499 710.447C389.591 710.387 389.657 710.296 389.684 710.19C389.712 710.084 389.699 709.972 389.648 709.875C389.596 709.779 389.511 709.705 389.408 709.669V709.669Z" fill="#263238"/>
                        <path d="M393.603 713.634C387.143 710.934 378.702 710.217 372.539 713.899C372.289 714.055 372.539 714.383 372.726 714.367C379.596 713.662 386.522 713.699 393.385 714.476C393.492 714.494 393.603 714.471 393.695 714.412C393.786 714.352 393.852 714.261 393.88 714.155C393.907 714.049 393.894 713.937 393.843 713.841C393.792 713.744 393.706 713.67 393.603 713.634V713.634Z" fill="#263238"/>
                        <path d="M318.662 691.742C311.375 688.84 306.85 700.184 314.168 703.086C321.486 705.988 326.026 694.645 318.662 691.742Z" fill="#263238"/>
                        <path d="M394.866 687.233C392.666 683.192 387.47 684.19 384.303 686.203C378.967 689.778 374.663 694.69 371.82 700.449C371.808 700.474 371.801 700.502 371.801 700.53C371.801 700.558 371.807 700.586 371.819 700.612C371.831 700.637 371.848 700.66 371.87 700.677C371.892 700.695 371.918 700.708 371.945 700.714C371.945 701.229 372.288 701.838 372.897 701.713C378.81 700.355 385.286 699.653 390.591 696.533C393.634 694.723 396.942 691.056 394.866 687.233ZM381.369 697.828C378.483 698.561 375.581 699.154 372.725 699.996C375.087 697.151 377.592 694.427 380.23 691.836C381.529 690.599 382.911 689.452 384.365 688.403C386.628 686.843 395.178 683.956 392.994 691.274C391.792 695.315 384.818 696.954 381.369 697.828V697.828Z" fill="#263238"/>
                        <path d="M354.663 696.391C359.968 699.511 366.443 700.245 372.341 701.618C372.95 701.758 373.356 701.15 373.309 700.619C373.338 700.616 373.366 700.605 373.39 700.588C373.414 700.571 373.433 700.548 373.446 700.522C373.458 700.495 373.464 700.466 373.462 700.436C373.46 700.407 373.45 700.378 373.434 700.354C370.596 694.583 366.291 689.66 360.951 686.077C357.83 684.048 352.603 683.034 350.388 687.06C348.172 691.086 351.558 694.565 354.663 696.391ZM352.229 691.117C350.06 683.799 358.595 686.701 360.857 688.277C362.31 689.328 363.687 690.48 364.977 691.725C367.61 694.322 370.11 697.051 372.466 699.901C369.611 699.059 366.709 698.45 363.822 697.717C360.327 696.781 353.415 695.22 352.229 691.117Z" fill="#263238"/>
                        <path d="M385.087 683.767L312.547 654.48C312.547 654.48 402.484 522.242 403.14 512.396C403.733 503.689 364.225 427.826 362.68 405.716C360.995 381.843 372.479 363.384 385.118 351.916L459.936 383.731C459.936 383.731 452.04 396.354 439.651 403.391C439.651 403.391 478.02 491.082 475.836 518.045C473.651 545.007 385.087 683.767 385.087 683.767Z" fill="#37474F"/>
                        <path d="M388.341 669.975C377.856 665.466 380.929 666.605 370.382 662.173C365.233 660.02 331.373 645.93 326.162 644.76C326.053 644.76 325.975 644.916 326.084 644.978C330.593 647.74 364.733 661.237 369.929 663.297C380.555 667.478 377.544 666.168 388.216 670.225C388.232 670.246 388.253 670.263 388.278 670.274C388.302 670.284 388.329 670.289 388.355 670.286C388.382 670.284 388.407 670.275 388.429 670.26C388.451 670.245 388.469 670.225 388.481 670.201C388.493 670.177 388.498 670.151 388.497 670.124C388.496 670.097 388.488 670.072 388.474 670.049C388.46 670.026 388.44 670.008 388.417 669.995C388.394 669.982 388.368 669.975 388.341 669.975V669.975Z" fill="#263238"/>
                        <path d="M451.95 401.783C444.161 403.599 436.54 406.073 429.169 409.179C429.139 409.19 429.112 409.206 429.088 409.227C429.065 409.247 429.046 409.273 429.032 409.301C429.018 409.329 429.01 409.36 429.008 409.391C429.006 409.423 429.011 409.454 429.021 409.484C429.031 409.513 429.047 409.541 429.068 409.564C429.089 409.588 429.114 409.607 429.142 409.621C429.171 409.635 429.201 409.643 429.233 409.645C429.264 409.647 429.295 409.642 429.325 409.632C436.971 407.401 444.741 405.31 452.262 402.673C452.839 402.47 452.543 401.659 451.95 401.783Z" fill="#263238"/>
                        <path d="M443.047 398.756C442.32 400.049 441.679 401.389 441.128 402.766C440.589 403.812 440.255 404.95 440.145 406.121C440.145 406.355 440.457 406.402 440.597 406.261C441.38 405.325 442.012 404.272 442.469 403.141C443.109 401.908 443.765 400.691 444.373 399.427C444.794 398.507 443.53 397.914 443.047 398.756Z" fill="#263238"/>
                        <path d="M443.98 391.672C444.449 390.518 444.901 389.379 445.385 388.224C445.868 387.069 446.477 385.883 446.945 384.666C446.945 384.479 447.32 384.666 447.241 384.807C446.773 385.961 446.477 387.179 446.118 388.364C445.759 389.55 445.353 390.736 444.963 391.922C444.23 394.122 443.403 396.307 442.389 398.444C443.617 398.505 444.843 398.292 445.978 397.82C447.137 397.078 448.028 395.984 448.521 394.699C449.176 393.42 449.785 392.109 450.456 390.83C451.282 389.446 451.976 387.989 452.531 386.476C452.531 386.289 452.905 386.476 452.827 386.617C451.81 389.815 450.477 392.904 448.849 395.838C448.146 396.977 447.6 398.179 446.321 398.616C444.936 399.003 443.486 399.104 442.061 398.912C441.874 398.912 441.655 398.912 441.718 398.631C442.357 396.276 443.112 393.953 443.98 391.672V391.672Z" fill="#263238"/>
                        <path d="M440.764 406.246C443.432 411.879 445.772 417.496 448.253 423.113C450.734 428.731 452.934 434.16 455.166 439.746C459.628 451.012 463.623 462.496 467.133 474.074C468.865 479.816 470.473 485.605 471.908 491.44C473.489 497.257 474.647 503.181 475.372 509.166C475.998 515.14 475.468 521.179 473.812 526.953C472.091 532.661 469.883 538.21 467.211 543.54C465.573 546.91 465.027 546.458 465.807 544.757C468.038 539.92 473.89 525.268 473.468 512.957C473.127 507.063 472.218 501.216 470.753 495.497C469.391 489.599 467.856 483.748 466.15 477.943C462.827 466.491 458.879 455.272 454.822 444.069C452.544 437.827 450.141 431.586 447.801 425.345C445.46 419.103 443.12 413.361 440.499 406.465C440.421 406.184 440.686 406.075 440.764 406.246Z" fill="#263238"/>
                        <path d="M385.728 387.632C387.023 387.148 388.849 387.944 390.159 388.162C391.857 388.45 393.572 388.622 395.293 388.677C396.996 388.737 398.7 388.68 400.395 388.506C402.102 388.462 403.775 388.018 405.279 387.211C407.747 385.413 409.863 383.175 411.52 380.61C413.495 377.99 415.126 375.126 416.373 372.091C416.373 371.904 416.701 372.091 416.638 372.216C416.092 373.948 415.687 375.695 415.078 377.396C414.405 378.994 413.602 380.534 412.675 381.999C411.173 384.948 408.951 387.47 406.215 389.333C403.204 391.049 399.334 390.893 395.98 390.752C394.034 390.639 392.099 390.384 390.191 389.988C388.818 389.691 386.508 389.473 385.635 388.272C385.593 388.226 385.563 388.171 385.545 388.112C385.527 388.053 385.523 387.991 385.532 387.93C385.541 387.869 385.563 387.81 385.597 387.759C385.631 387.708 385.676 387.664 385.728 387.632V387.632Z" fill="#263238"/>
                        <path d="M333.259 640.608C345.18 622.55 356.882 604.346 368.366 585.996C379.85 567.647 391.178 549.157 402.35 530.526C405.019 526.079 408.092 521.648 409.809 516.717C411.681 511.366 410.62 506.17 408.935 500.927C405.753 491.363 402.033 481.986 397.794 472.841C393.612 463.619 389.103 454.554 384.672 445.457C380.24 436.36 375.606 427.373 372.189 417.886C369.068 408.821 367.805 399.427 370.239 390.034C372.673 380.641 377.916 372.34 383.392 364.523C384.828 362.463 386.31 360.419 387.761 358.281C387.87 358.125 388.105 358.281 387.995 358.469C381.957 366.614 376.074 375.242 372.532 384.807C370.722 389.522 369.71 394.505 369.537 399.552C369.507 404.675 370.303 409.77 371.893 414.641C374.826 424.127 379.46 433.099 383.782 442.024C388.105 450.949 392.723 460.187 396.983 469.377C401.377 478.627 405.284 488.1 408.685 497.759C410.136 502.05 411.806 506.544 411.681 511.147C411.572 516.187 409.169 520.728 406.672 524.972C395.75 543.462 384.563 561.733 373.172 579.895C361.782 598.058 350.064 616.22 338.205 634.195L333.711 640.982C333.477 641.263 333.072 640.935 333.259 640.608Z" fill="#263238"/>
                        <path d="M464.13 299.631C470.887 314.454 505.011 334.879 520.989 337.079C532.473 338.639 567.393 339.201 579.361 337.376C593.404 335.222 582.669 297.384 574.383 298.367C551.602 301.02 532.254 303.984 526.169 303.984C518.742 303.984 478.563 291.096 473.726 289.271C461.868 284.855 460.307 291.221 464.13 299.631Z" fill="#EB9481"/>
                        <path d="M464.301 303.576C472.851 316.23 501.265 336.92 501.265 336.92L505.213 328.182L518.273 299.285C518.273 299.285 492.168 291.093 474.989 287.349C472.967 286.888 470.911 286.596 468.841 286.475C457.872 285.882 456.92 292.654 464.301 303.576Z" fill="#FFC727"/>
                        <path d="M464.301 303.579C472.851 316.233 501.265 336.923 501.265 336.923L505.213 328.185C494.618 315.874 478.25 297.228 468.841 286.509C457.872 285.885 456.92 292.656 464.301 303.579Z" fill="#263238"/>
                        <path d="M496.197 331.054C498.365 325.733 508.008 304.31 510.411 299.848C510.567 299.535 510.817 299.567 510.676 299.848C506.494 310.501 501.733 320.919 496.415 331.054C496.353 331.241 496.103 331.179 496.197 331.054Z" fill="#263238"/>
                        <path d="M570.18 298.757C584.035 296.947 601.184 293.842 615.71 300.005C617.342 300.645 618.71 301.816 619.595 303.328C626.149 305.981 626.867 309.866 626.867 309.866C632.218 314.204 632.406 318.292 632.406 318.292C632.406 318.292 640.083 321.413 638.912 326.437C637.633 331.992 627.116 326.437 619.471 326.889C601.917 327.982 577.342 334.426 572.271 335.237L570.18 298.757Z" fill="#EB9481"/>
                        <path d="M600.265 315.107C605.398 314.756 610.549 314.756 615.681 315.107C621.271 315.809 626.8 316.93 632.221 318.462C632.256 318.475 632.295 318.472 632.328 318.456C632.362 318.44 632.388 318.411 632.4 318.376C632.413 318.341 632.411 318.302 632.395 318.269C632.379 318.235 632.35 318.209 632.315 318.197C622.13 314.201 611.044 313.078 600.265 314.951C600.016 314.92 600.016 315.123 600.265 315.107Z" fill="#263238"/>
                        <path d="M597.012 298.897C605.578 299.334 610.93 300.707 619.543 303.298V303.204C610.056 299.241 606.171 298.866 596.965 298.523C596.669 298.648 596.684 298.897 597.012 298.897Z" fill="#263238"/>
                        <path d="M598.417 329.543C596.186 330.588 596.732 331.758 600.991 332.741C605.251 333.724 622.961 334.021 622.337 340.2C621.713 346.379 596.732 345.599 589.757 343.414C582.782 341.23 572.281 335.238 572.281 335.238C577.228 334.411 588.836 331.275 598.417 329.543Z" fill="#EB9481"/>
                        <path d="M482.658 323.254C482.549 325.922 482.3 328.637 481.925 331.336C481.925 331.227 481.925 331.133 482.034 331.04C482.549 329.636 483.064 328.2 483.688 326.843C483.688 326.843 483.844 326.843 483.829 326.843C483.529 328.33 483.079 329.783 482.487 331.18C482.206 331.851 481.941 332.507 481.644 333.162C481.457 334.363 481.239 335.549 481.005 336.735C480.536 338.966 478.43 348.453 477.884 350.06C477.79 350.388 477.385 350.31 477.416 349.935C477.525 348.188 479.288 338.311 479.647 336.064C480.344 331.726 481.276 327.429 482.44 323.191C482.518 323.113 482.674 323.176 482.658 323.254Z" fill="#263238"/>
                        <path d="M466.422 394.201C462.256 396.338 456.889 399.662 432.703 394.903C431.143 394.591 429.676 394.216 428.147 393.764C405.476 386.961 378.217 360.295 376.734 358.407C376.734 358.407 412.762 300.004 458.839 281.639C464.534 279.376 473.959 283.745 479.123 289.191C480.98 291.141 485.021 305.48 483.477 317.089C481.932 328.698 470.573 392.063 466.422 394.201Z" fill="#FFC727"/>
                        <path d="M463.193 316.561C463.367 319.029 463.022 321.506 462.179 323.832C461.981 321.363 462.327 318.881 463.193 316.561V316.561Z" fill="white"/>
                        <path d="M447.471 356.331C447.57 357.559 447.528 358.795 447.346 360.013C447.196 361.241 446.897 362.446 446.456 363.602C446.349 362.369 446.391 361.127 446.581 359.904C446.741 358.683 447.039 357.484 447.471 356.331V356.331Z" fill="white"/>
                        <path d="M420.79 326.264C420.966 328.737 420.62 331.219 419.776 333.55C419.58 331.077 419.926 328.59 420.79 326.264V326.264Z" fill="white"/>
                        <path d="M473.459 354.304C473.559 355.537 473.517 356.778 473.334 358.002C473.184 359.23 472.885 360.435 472.445 361.59C472.337 360.357 472.379 359.116 472.57 357.892C472.727 356.666 473.026 355.462 473.459 354.304V354.304Z" fill="white"/>
                        <path d="M439.168 321.116C440.396 321.012 441.631 321.048 442.85 321.225C444.079 321.381 445.284 321.685 446.439 322.13C443.971 322.308 441.493 321.962 439.168 321.116V321.116Z" fill="white"/>
                        <path d="M408.879 349.841C411.347 349.667 413.824 350.013 416.15 350.855C413.681 351.053 411.199 350.707 408.879 349.841V349.841Z" fill="white"/>
                        <path d="M444.59 380.938C447.058 380.761 449.536 381.107 451.861 381.953C449.392 382.148 446.911 381.801 444.59 380.938V380.938Z" fill="white"/>
                        <path d="M399.547 369.64C402.015 369.466 404.492 369.812 406.818 370.655C404.349 370.85 401.868 370.503 399.547 369.64V369.64Z" fill="white"/>
                        <path d="M462.957 288.598C465.425 288.424 467.902 288.77 470.228 289.612C467.76 289.786 465.283 289.441 462.957 288.598V288.598Z" fill="white"/>
                        <path d="M454.156 298.553C453.367 299.502 452.466 300.351 451.472 301.081C450.505 301.829 449.459 302.467 448.352 302.985C449.135 302.043 450.025 301.194 451.004 300.457C451.98 299.707 453.037 299.068 454.156 298.553V298.553Z" fill="white"/>
                        <path d="M406.101 326.841C405.303 327.781 404.397 328.624 403.402 329.353C402.445 330.114 401.397 330.754 400.281 331.256C401.084 330.32 401.989 329.478 402.981 328.744C403.94 327.986 404.988 327.346 406.101 326.841V326.841Z" fill="white"/>
                        <path d="M466.09 339.606C465.291 340.551 464.385 341.399 463.39 342.133C462.431 342.892 461.383 343.531 460.27 344.037C461.068 343.092 461.974 342.244 462.969 341.509C463.933 340.758 464.98 340.12 466.09 339.606Z" fill="white"/>
                        <path d="M427.254 364.071C426.455 365.015 425.549 365.864 424.554 366.598C423.593 367.355 422.546 367.994 421.434 368.502C422.232 367.557 423.138 366.709 424.133 365.974C425.098 365.223 426.145 364.585 427.254 364.071Z" fill="white"/>
                        <path d="M480.988 306.183C480.19 307.128 479.284 307.976 478.289 308.711C477.322 309.459 476.275 310.097 475.168 310.614C475.966 309.67 476.872 308.821 477.867 308.087C478.828 307.33 479.876 306.691 480.988 306.183V306.183Z" fill="white"/>
                        <path d="M480.185 334.535C479.24 333.737 478.392 332.831 477.657 331.836C476.898 330.877 476.259 329.829 475.754 328.715C476.702 329.504 477.551 330.405 478.282 331.399C479.027 332.373 479.665 333.425 480.185 334.535V334.535Z" fill="white"/>
                        <path d="M393.576 354.069C392.631 353.271 391.783 352.365 391.048 351.37C390.297 350.405 389.659 349.358 389.145 348.249C390.089 349.047 390.938 349.953 391.672 350.949C392.429 351.91 393.068 352.957 393.576 354.069V354.069Z" fill="white"/>
                        <path d="M469.634 377.303C468.686 376.515 467.837 375.613 467.107 374.62C466.359 373.653 465.721 372.606 465.203 371.499C466.148 372.297 466.996 373.203 467.731 374.198C468.484 375.156 469.123 376.198 469.634 377.303Z" fill="white"/>
                        <path d="M431.533 311.069C430.588 310.276 429.74 309.375 429.005 308.385C428.261 307.416 427.622 306.37 427.102 305.264C428.05 306.053 428.899 306.954 429.629 307.948C430.374 308.917 431.012 309.963 431.533 311.069V311.069Z" fill="white"/>
                        <path d="M432.166 390.536C431.221 389.738 430.372 388.832 429.638 387.836C428.889 386.87 428.251 385.824 427.734 384.716C428.683 385.505 429.531 386.406 430.262 387.4C431.013 388.37 431.652 389.422 432.166 390.536V390.536Z" fill="white"/>
                        <path d="M438.646 343.661C437.71 342.859 436.868 341.953 436.134 340.962C435.372 340.005 434.733 338.957 434.23 337.841C435.17 338.64 436.014 339.546 436.743 340.541C437.501 341.5 438.14 342.548 438.646 343.661V343.661Z" fill="white"/>
                        <path d="M470.667 304.748C464.784 303.656 459.261 291.501 458.559 283.325C458.559 282.763 461.305 278.316 464.441 272.746C466.345 269.36 468.357 265.537 469.965 261.917C470.292 261.184 472.211 263.665 472.211 263.665L476.393 266.785L490.202 277.38C486.914 281.326 484.121 285.659 481.886 290.284C481.665 290.785 481.497 291.308 481.386 291.844C481.38 291.933 481.38 292.021 481.386 292.109C480.528 295.199 476.331 305.794 470.667 304.748Z" fill="#EB9481"/>
                        <path d="M481.416 291.92C481.41 292.009 481.41 292.097 481.416 292.186C480.596 291.945 479.797 291.637 479.029 291.265C463.909 284.181 470.571 263.928 470.571 263.928L476.501 266.861L490.31 277.456C487.021 281.402 484.228 285.735 481.993 290.36C481.746 290.858 481.552 291.381 481.416 291.92V291.92Z" fill="#263238"/>
                        <path d="M506.09 234.267C506.09 234.267 513.002 238.651 513.033 246.453C513.065 254.255 509.913 261.885 509.257 262.166C508.602 262.446 506.09 234.267 506.09 234.267Z" fill="#263238"/>
                        <path d="M471.811 238.323C467.66 246.515 467.879 272.338 473.059 278.985C480.58 288.628 495.06 291.952 503.813 282.418C512.286 273.181 511.412 239.54 505.373 233.268C496.589 223.999 477.958 226.199 471.811 238.323Z" fill="#EB9481"/>
                        <path d="M493.814 259C493.814 259 493.673 259.094 493.689 259.156C493.783 260.919 493.595 262.948 492.02 263.572C492.02 263.572 492.02 263.681 492.02 263.666C493.97 263.354 494.188 260.654 493.814 259Z" fill="#263238"/>
                        <path d="M492.224 257.205C489.384 257.049 489.291 262.729 491.928 262.869C494.565 263.01 494.596 257.33 492.224 257.205Z" fill="#263238"/>
                        <path d="M503.445 258.936C503.445 258.936 503.585 258.936 503.585 259.092C503.492 260.855 503.695 262.884 505.286 263.492C505.286 263.492 505.286 263.601 505.286 263.586C503.32 263.289 503.086 260.59 503.445 258.936Z" fill="#263238"/>
                        <path d="M505.06 257.126C507.884 256.954 508.024 262.634 505.403 262.79C502.782 262.946 502.688 257.267 505.06 257.126Z" fill="#263238"/>
                        <path d="M490.457 252.882C491.203 252.67 491.937 252.42 492.657 252.133C493.477 251.985 494.224 251.567 494.779 250.947C494.914 250.72 494.971 250.455 494.94 250.192C494.909 249.93 494.792 249.685 494.608 249.496C494.186 249.175 493.685 248.972 493.159 248.909C492.632 248.846 492.098 248.925 491.612 249.137C490.559 249.419 489.648 250.08 489.053 250.994C488.934 251.211 488.88 251.458 488.898 251.705C488.915 251.952 489.003 252.189 489.15 252.388C489.298 252.586 489.5 252.739 489.732 252.826C489.963 252.914 490.215 252.933 490.457 252.882V252.882Z" fill="#263238"/>
                        <path d="M506.999 255.395C506.24 255.225 505.49 255.017 504.752 254.771C503.93 254.662 503.167 254.283 502.583 253.694C502.433 253.477 502.36 253.216 502.377 252.952C502.394 252.689 502.5 252.439 502.677 252.243C503.079 251.899 503.567 251.67 504.089 251.579C504.61 251.488 505.147 251.54 505.642 251.728C506.709 251.949 507.655 252.561 508.294 253.444C508.428 253.653 508.498 253.897 508.496 254.145C508.494 254.393 508.42 254.635 508.282 254.842C508.145 255.048 507.951 255.211 507.723 255.309C507.495 255.407 507.244 255.437 506.999 255.395V255.395Z" fill="#263238"/>
                        <path d="M489.84 275.677C490.261 276.099 490.667 276.66 491.307 276.723C491.963 276.722 492.611 276.584 493.21 276.317C493.21 276.317 493.32 276.317 493.21 276.411C492.955 276.754 492.611 277.021 492.215 277.183C491.819 277.345 491.386 277.396 490.964 277.331C490.607 277.234 490.287 277.034 490.043 276.757C489.799 276.48 489.642 276.137 489.591 275.771C489.578 275.738 489.579 275.701 489.594 275.669C489.609 275.637 489.635 275.612 489.669 275.599C489.702 275.587 489.738 275.588 489.771 275.603C489.803 275.617 489.828 275.644 489.84 275.677Z" fill="#263238"/>
                        <path d="M500.038 268.158C500.038 268.158 500.116 270.779 500.038 272.012C497.64 271.757 495.219 271.841 492.844 272.261C492.283 272.386 492.345 271.934 492.985 271.637C494.897 270.763 497.027 270.48 499.101 270.826C499.226 270.498 498.899 266.769 499.101 266.784C500.045 266.97 500.959 267.285 501.816 267.721C501.816 262.228 500.943 256.798 501.021 251.306C501.021 251.119 501.317 251.087 501.348 251.306C502.457 257.116 502.98 263.023 502.909 268.938C502.924 269.609 500.506 268.407 500.038 268.158Z" fill="#263238"/>
                        <path d="M496.512 271.077C495.89 272.713 494.736 274.092 493.235 274.993C490.879 275.945 490.114 273.807 492.486 271.873C493.73 271.244 495.122 270.969 496.512 271.077Z" fill="#263238"/>
                        <path d="M494.085 274.507C493.836 274.71 493.557 274.873 493.258 274.991C491.089 275.865 490.231 274.133 491.978 272.385C493.164 272.479 494.522 272.916 494.085 274.507Z" fill="#FF99BA"/>
                        <path d="M470.618 260.404C473.473 261.278 476.75 252.696 477.686 249.482C478.497 246.58 479.434 237.358 479.574 236.719C479.714 236.079 492.057 244.879 499.203 242.788C506.349 240.697 511.202 234.222 511.311 231.211C511.42 228.199 502.48 220.554 494.756 220.163C487.032 219.773 476.563 229.525 476.563 229.525C477.827 228.09 478.975 226.556 479.995 224.938C479.871 224.595 474.877 226.592 473.957 230.15C473.957 230.15 474.955 225.671 474.581 225.593C474.207 225.515 470.321 229.338 471.195 232.24C471.195 232.24 466.701 236.126 466.296 240.385C465.89 244.645 467.263 259.375 470.618 260.404Z" fill="#263238"/>
                        <path d="M504.312 241.165C502.186 242.318 499.897 243.138 497.524 243.599C494.86 243.837 492.179 243.408 489.722 242.351C487.248 241.395 484.949 240.035 482.919 238.325C481.125 236.859 479.518 235.064 477.599 233.754C477.115 233.41 476.569 234.112 476.865 234.549C480.067 239.072 484.641 242.443 489.91 244.161C492.356 244.959 494.968 245.108 497.49 244.594C500.012 244.079 502.357 242.92 504.296 241.228C504.296 241.228 504.343 241.165 504.312 241.165Z" fill="#263238"/>
                        <path d="M473.615 259.639C473.615 259.639 469.183 250.652 465.189 252.103C461.195 253.554 463.629 265.99 467.732 268.268C468.235 268.593 468.798 268.813 469.388 268.916C469.978 269.018 470.582 269 471.165 268.863C471.748 268.726 472.297 268.473 472.78 268.119C473.262 267.764 473.668 267.316 473.974 266.801L473.615 259.639Z" fill="#EB9481"/>
                        <path d="M465.979 255.645C465.979 255.645 465.885 255.645 465.979 255.77C468.819 257.455 469.974 260.451 470.66 263.571C470.531 263.241 470.331 262.943 470.075 262.697C469.82 262.451 469.513 262.264 469.178 262.148C468.843 262.033 468.486 261.991 468.133 262.027C467.78 262.062 467.439 262.174 467.134 262.354C467.04 262.354 467.134 262.526 467.134 262.526C467.692 262.439 468.263 262.527 468.769 262.779C469.275 263.03 469.69 263.433 469.958 263.93C470.405 264.763 470.76 265.642 471.019 266.551C471.113 266.848 471.628 266.77 471.581 266.442C472.252 262.557 470.067 256.675 465.979 255.645Z" fill="#263238"/>
                        <path d="M444.342 299.771C441.222 317.449 460.383 377.007 472.663 388.132C490.934 404.672 524.715 415.547 536.964 419.089C542.3 420.65 557.061 383.093 551.662 380.612C540.1 375.353 504.181 364.119 500.764 361.31C497.347 358.502 476.751 328.746 467.576 311.614C455.296 288.552 445.887 290.83 444.342 299.771Z" fill="#EB9481"/>
                        <path d="M542.538 377.303C542.538 377.303 558.485 381.375 568.768 384.511C574.51 386.275 584.09 390.16 587.726 393.374C593.156 398.196 612.785 421.788 607.167 426.672C602.081 431.103 587.788 408.681 587.788 408.681C587.788 408.681 604.203 430.026 597.15 434.224C590.097 438.421 577.193 410.943 577.193 410.943C577.193 410.943 593.561 433.256 585.557 436.424C579.503 438.811 566.521 414.579 566.521 414.579C566.521 414.579 580.47 433.849 574.322 436.58C567.551 439.607 554.179 417.981 554.179 417.981C537.452 422.303 527.653 417.512 521.209 413.3C519.695 412.27 542.538 377.303 542.538 377.303Z" fill="#EB9481"/>
                        <path d="M582.599 400.926C584.627 403.36 586.687 405.826 588.481 408.431C590.275 411.037 591.976 413.721 593.521 416.483C595.614 420.055 597.289 423.856 598.514 427.811C595.83 420.945 589.542 411.505 587.748 408.9C585.953 406.294 584.284 403.594 582.505 400.989C582.458 400.926 582.552 400.864 582.599 400.926Z" fill="#263238"/>
                        <path d="M573.057 407.246C576.521 409.992 583.777 420.197 586.57 427.047C586.695 427.327 586.57 427.312 586.367 427.047C584.182 423.661 575.32 410.554 572.979 407.293C572.932 407.246 573.01 407.199 573.057 407.246Z" fill="#263238"/>
                        <path d="M563.922 411.242C568.225 415.756 571.626 421.052 573.939 426.845C574.048 427.126 573.83 427.079 573.658 426.845C570.428 421.587 567.932 417.483 563.75 411.382C563.687 411.242 563.828 411.101 563.922 411.242Z" fill="#263238"/>
                        <path d="M461.725 301.065C447.479 280.921 438.96 288.379 441.815 310.255C444.499 330.711 451.661 355.083 451.661 355.083L487.548 337.67C487.548 337.67 470.79 313.969 461.725 301.065Z" fill="#FFC727"/>
                        <path d="M470.405 308.992C470.878 310.13 471.218 311.318 471.419 312.534C471.638 313.754 471.717 314.995 471.653 316.232C471.185 315.088 470.85 313.895 470.654 312.675C470.422 311.462 470.339 310.225 470.405 308.992V308.992Z" fill="white"/>
                        <path d="M449.133 321.239C451.423 320.308 453.887 319.882 456.357 319.991C455.219 320.459 454.03 320.794 452.815 320.99C451.602 321.221 450.366 321.305 449.133 321.239V321.239Z" fill="white"/>
                        <path d="M450.088 289.91C449.122 292.19 447.68 294.238 445.859 295.917C446.826 293.637 448.267 291.589 450.088 289.91V289.91Z" fill="white"/>
                        <path d="M480.471 330.648C479.997 331.789 479.395 332.873 478.676 333.878C477.976 334.896 477.16 335.828 476.242 336.655C477.208 334.375 478.65 332.327 480.471 330.648V330.648Z" fill="white"/>
                        <path d="M455.531 342.866C454.387 342.398 453.303 341.796 452.301 341.072C451.282 340.373 450.35 339.556 449.523 338.638C451.804 339.604 453.852 341.046 455.531 342.866V342.866Z" fill="white"/>
                        <path d="M466.437 307.136C468.357 309.773 470.338 312.347 472.304 314.937C471.805 313.627 471.368 312.3 470.994 310.959H471.087C471.477 311.988 471.93 313.003 472.304 314.079L472.866 315.64C472.914 315.746 472.956 315.856 472.991 315.967C474.551 317.98 476.111 319.993 477.547 322.053C479.31 324.518 481.011 327.014 482.727 329.511C484.444 332.007 486.176 335.112 488.032 337.625C488.204 337.843 484.912 339.185 484.553 339.357C484.194 339.528 484.007 339.232 484.35 339.123C484.693 339.013 487.315 337.406 487.346 337.375C485.629 334.847 483.648 332.522 481.853 330.073C480.059 327.623 478.28 325.173 476.548 322.692C473.038 317.637 469.823 312.394 466.328 307.323L466.437 307.136Z" fill="#263238"/>
                        <path d="M442.703 324.736C443.249 325.797 443.842 326.842 444.263 327.934L444.856 329.292C444.029 325.407 443.296 321.49 442.438 317.605C444.091 323.846 445.761 330.228 447.29 336.563C448.741 342.617 450.504 348.734 451.347 354.912C452.435 354.435 453.563 354.054 454.717 353.773C453.559 354.523 452.311 355.126 451.004 355.568C449.123 349.285 447.56 342.91 446.323 336.469C445.933 334.722 445.574 332.974 445.199 331.227C444.794 330.166 444.31 329.151 443.826 328.106C443.342 327.061 442.906 325.89 442.469 324.782C442.562 324.72 442.672 324.658 442.703 324.736Z" fill="#263238"/>
                        <path d="M452.222 349.062C457.215 346.253 478.077 335.455 482.742 333.458C483.07 333.318 483.242 333.458 482.914 333.677C473.011 339.431 462.802 344.64 452.331 349.28C452.207 349.311 452.082 349.14 452.222 349.062Z" fill="#263238"/>
                        <path d="M1023.99 759.271H548.59L617.322 369.423H1092.72L1023.99 759.271Z" fill="#FFC727"/>
                        <path d="M780.032 329.042H624.451L617.32 369.423H783.823L780.032 329.042Z" fill="#FFC727"/>
                        <g opacity="0.1">
                        <path d="M1023.99 759.271H548.59L617.322 369.423H1092.72L1023.99 759.271Z" fill="black"/>
                        <path d="M780.032 329.042H624.451L617.32 369.423H783.823L780.032 329.042Z" fill="black"/>
                        </g>
                        <path d="M607.651 345.52C606.611 341.055 606.611 336.411 607.651 331.946C608.692 336.411 608.692 341.055 607.651 345.52V345.52Z" fill="#263238"/>
                        <path d="M593.838 349.514C592.249 347.866 590.881 346.02 589.766 344.021C588.596 342.064 587.679 339.967 587.035 337.78C588.629 339.418 589.998 341.259 591.108 343.257C592.274 345.221 593.192 347.323 593.838 349.514V349.514Z" fill="#263238"/>
                        <path d="M583.886 359.891C579.502 358.558 575.482 356.236 572.137 353.104C574.324 353.74 576.422 354.652 578.378 355.819C580.377 356.941 582.227 358.309 583.886 359.891V359.891Z" fill="#263238"/>
                        <path d="M580.387 373.87C575.922 374.91 571.278 374.91 566.812 373.87C571.278 372.829 575.922 372.829 580.387 373.87V373.87Z" fill="#263238"/>
                        <path d="M584.41 387.696C582.755 389.276 580.91 390.644 578.917 391.768C576.961 392.935 574.863 393.847 572.676 394.483C574.323 392.894 576.169 391.525 578.168 390.411C580.122 389.238 582.22 388.325 584.41 387.696V387.696Z" fill="#263238"/>
                        <path d="M594.799 397.664C593.471 402.055 591.148 406.081 588.012 409.429C588.647 407.239 589.565 405.141 590.742 403.188C591.855 401.182 593.218 399.326 594.799 397.664V397.664Z" fill="#263238"/>
                        <path d="M608.777 401.114C609.321 403.335 609.583 405.615 609.557 407.902C609.59 410.188 609.328 412.47 608.777 414.689C608.217 412.471 607.955 410.189 607.996 407.902C607.97 405.615 608.233 403.335 608.777 401.114V401.114Z" fill="#263238"/>
                        <path d="M622.598 397.198C624.186 398.845 625.555 400.691 626.67 402.69C627.843 404.644 628.755 406.742 629.385 408.931C626.249 405.583 623.926 401.558 622.598 397.167V397.198Z" fill="#263238"/>
                        <path d="M632.562 386.743C634.752 387.373 636.85 388.286 638.804 389.458C640.803 390.573 642.649 391.942 644.296 393.531C642.107 392.901 640.008 391.988 638.055 390.816C636.056 389.701 634.21 388.332 632.562 386.743V386.743Z" fill="#263238"/>
                        <path d="M635.984 372.761C640.455 371.721 645.104 371.721 649.575 372.761C645.104 373.801 640.455 373.801 635.984 372.761V372.761Z" fill="#263238"/>
                        <path d="M632.008 358.939C633.66 357.36 635.505 355.996 637.5 354.882C639.45 353.698 641.549 352.78 643.741 352.151C640.394 355.288 636.368 357.61 631.977 358.939H632.008Z" fill="#263238"/>
                        <path d="M621.621 348.967C622.263 346.782 623.175 344.685 624.336 342.726C625.451 340.727 626.82 338.881 628.408 337.233C627.779 339.423 626.866 341.521 625.694 343.475C624.579 345.474 623.21 347.32 621.621 348.967V348.967Z" fill="#263238"/>
                        <path d="M1023.29 759.274H546.879L479.223 383.577H955.654L1023.29 759.274Z" fill="#FFC727"/>
                        <path d="M644.305 613.242C655.24 613.242 664.105 604.377 664.105 593.441C664.105 582.506 655.24 573.641 644.305 573.641C633.369 573.641 624.504 582.506 624.504 593.441C624.504 604.377 633.369 613.242 644.305 613.242Z" fill="#263238"/>
                        <path d="M800.867 613.242C811.803 613.242 820.668 604.377 820.668 593.441C820.668 582.506 811.803 573.641 800.867 573.641C789.931 573.641 781.066 582.506 781.066 593.441C781.066 604.377 789.931 613.242 800.867 613.242Z" fill="#263238"/>
                        <path d="M751.033 616.41L749.941 614.334C749.847 614.147 739.611 595.236 719.031 595.236C700.307 595.236 695.626 613.039 695.501 613.804L694.939 616.066L690.398 614.974L690.945 612.696C690.945 612.478 696.531 590.555 719.031 590.555C742.436 590.555 753.623 611.276 754.091 612.165L755.183 614.225L751.033 616.41Z" fill="#263238"/>
                        <path d="M991.839 591.926L991.512 590.366C992.526 590.147 993.525 589.913 994.523 589.648L994.913 591.209C993.852 591.474 992.869 591.708 991.839 591.926Z" fill="#263238"/>
                        <path d="M1000.96 589.414L1000.46 587.947C1002.41 587.276 1004.36 586.543 1006.25 585.747L1006.86 587.182C1004.94 587.994 1002.96 588.743 1000.96 589.414ZM1012.58 584.436L1011.88 583.063C1013.71 582.111 1015.53 581.081 1017.26 579.942L1018.08 581.269C1016.3 582.501 1014.44 583.547 1012.58 584.436ZM1023.32 577.836L1022.4 576.572C1024.08 575.339 1025.71 574.044 1027.23 572.718L1028.26 573.888C1026.63 575.308 1025.07 576.634 1023.3 577.898L1023.32 577.836ZM1032.84 569.535L1031.7 568.458C1033.13 566.898 1034.49 565.338 1035.74 563.777L1036.97 564.729C1035.68 566.446 1034.29 568.053 1032.87 569.597L1032.84 569.535ZM1040.56 559.549L1039.23 558.722C1040.31 556.979 1041.27 555.165 1042.1 553.292L1043.54 553.932C1042.66 555.884 1041.66 557.781 1040.54 559.611L1040.56 559.549ZM1045.72 547.971L1044.16 547.534C1044.73 545.577 1045.16 543.579 1045.43 541.558L1046.99 541.761C1046.73 543.883 1046.3 545.98 1045.71 548.034L1045.72 547.971ZM1047.46 535.489H1045.9V535.036C1045.9 533.148 1045.79 531.229 1045.6 529.341L1047.16 529.185C1047.37 531.129 1047.47 533.082 1047.47 535.036L1047.46 535.489ZM1044.65 523.271C1044.23 521.259 1043.71 519.27 1043.09 517.311L1044.65 516.843C1045.29 518.871 1045.83 520.931 1046.21 522.943L1044.65 523.271ZM1040.95 511.522C1040.2 509.681 1039.39 507.793 1038.39 505.889L1039.8 505.187C1040.75 507.122 1041.62 509.057 1042.39 510.929L1040.95 511.522ZM1035.49 500.397C1034.52 498.696 1033.46 496.902 1032.37 495.06L1033.69 494.233C1034.83 496.09 1035.91 497.9 1036.82 499.632L1035.49 500.397ZM1028.97 489.802C1027.83 488.086 1026.67 486.354 1025.49 484.622L1026.78 483.748C1027.97 485.48 1029.12 487.212 1030.26 488.959L1028.97 489.802ZM1021.95 479.473C1020.77 477.756 1019.59 476.024 1018.43 474.308L1019.73 473.434C1020.88 475.151 1022.05 476.883 1023.22 478.583L1021.95 479.473ZM1014.97 469.081C1013.83 467.333 1012.72 465.554 1011.63 463.776L1012.96 462.964C1014.05 464.743 1015.16 466.491 1016.28 468.238L1014.97 469.081ZM1008.46 458.361C1007.4 456.473 1006.42 454.601 1005.53 452.807L1006.93 452.104C1007.81 453.883 1008.79 455.724 1009.82 457.597L1008.46 458.361ZM1002.92 447.127C1002.1 445.177 1001.36 443.195 1000.68 441.26L1002.24 440.761C1002.89 442.649 1003.63 444.599 1004.44 446.518L1002.92 447.127ZM998.868 435.222C998.353 433.193 997.9 431.118 997.557 428.98L999.118 428.731C999.461 430.728 999.882 432.756 1000.4 434.754L998.868 435.222ZM996.777 422.739C996.621 420.82 996.543 418.885 996.543 416.95V416.435H998.103V416.935C998.103 418.823 998.103 420.726 998.337 422.599L996.777 422.739ZM998.337 410.256L996.777 410.1C996.777 409.679 996.855 409.242 996.902 408.79C997.089 407.12 997.323 405.451 997.604 403.859L999.164 404.124C998.899 405.685 998.665 407.323 998.478 408.961C998.54 409.445 998.54 409.866 998.415 410.303L998.337 410.256ZM1000.51 398.117L998.946 397.696C999.523 395.636 1000.19 393.623 1000.94 391.704L1002.39 392.266C1001.69 394.198 1001.08 396.167 1000.58 398.164L1000.51 398.117ZM1078.26 389.02C1077.38 389.02 1076.48 388.895 1075.59 388.771C1074.37 388.599 1073.16 388.396 1071.95 388.162L1072.27 386.602C1073.42 386.82 1074.62 387.023 1075.81 387.195C1076.65 387.304 1077.51 387.382 1078.34 387.429L1078.26 389.02ZM1084.67 388.537L1084.34 386.976C1086.3 386.572 1088.18 385.844 1089.9 384.823L1090.71 386.149C1088.87 387.286 1086.86 388.109 1084.75 388.583L1084.67 388.537ZM1005 386.68L1003.61 385.946C1004.6 384.086 1005.7 382.283 1006.9 380.548L1008.18 381.437C1007.04 383.136 1006.01 384.903 1005.08 386.727L1005 386.68ZM1065.85 386.586C1063.84 385.947 1061.86 385.202 1059.92 384.355L1060.56 382.919C1062.44 383.753 1064.36 384.477 1066.32 385.088L1065.85 386.586ZM1095.5 381.718L1094.2 380.844C1095.32 379.232 1095.97 377.352 1096.11 375.399L1097.67 375.508C1097.54 377.746 1096.8 379.908 1095.55 381.765L1095.5 381.718ZM1054.31 381.484C1052.48 380.422 1050.71 379.261 1049.02 378.004L1049.94 376.756C1051.59 377.975 1053.31 379.1 1055.09 380.126L1054.31 381.484ZM1012.02 376.616L1010.87 375.57C1012.28 373.999 1013.79 372.514 1015.38 371.123L1016.41 372.293C1014.88 373.663 1013.43 375.122 1012.07 376.662L1012.02 376.616ZM1044.15 373.979C1042.59 372.547 1041.12 371.031 1039.73 369.438L1040.9 368.408C1042.25 369.956 1043.69 371.43 1045.19 372.824L1044.15 373.979ZM1094.94 369.75C1094.04 367.967 1092.81 366.377 1091.3 365.069L1092.33 363.899C1093.99 365.333 1095.35 367.077 1096.34 369.032L1094.94 369.75ZM1021.26 368.517L1020.37 367.238C1022.11 366.046 1023.92 364.947 1025.78 363.946L1026.52 365.319C1024.72 366.309 1022.99 367.393 1021.31 368.564L1021.26 368.517ZM1035.83 364.461C1035.24 363.618 1034.66 362.76 1034.12 361.87L1032.09 362.666L1031.49 361.231L1033.29 360.513C1033.01 360.045 1032.73 359.577 1032.46 359.109L1033.82 358.344C1034.13 358.89 1034.44 359.436 1034.77 359.904C1035.64 359.592 1036.53 359.296 1037.44 359.015L1037.89 360.575C1037.13 360.809 1036.33 361.059 1035.61 361.324C1036.1 362.089 1036.6 362.885 1037.17 363.556L1035.83 364.461ZM1086.28 361.777C1084.77 361.024 1083.2 360.388 1081.6 359.873L1080.57 359.546L1081.02 357.985L1082.08 358.329C1083.75 358.861 1085.38 359.524 1086.95 360.31L1086.28 361.777ZM1043.87 358.984L1043.54 357.424C1045.55 356.971 1047.64 356.597 1049.78 356.3L1050.02 357.86C1047.96 358.188 1045.91 358.578 1043.91 359.031L1043.87 358.984ZM1074.61 358.141C1072.66 357.798 1070.6 357.533 1068.49 357.346L1068.61 355.785C1070.78 355.972 1072.89 356.238 1074.86 356.597L1074.61 358.141ZM1056.12 357.236L1056.01 355.676C1057.86 355.567 1059.72 355.504 1061.56 355.504H1062.33V357.065H1061.58C1059.81 357.111 1057.97 357.158 1056.16 357.283L1056.12 357.236ZM1029.75 353.507C1028.9 351.604 1028.19 349.622 1027.48 347.609L1029.04 347.125C1029.7 349.091 1030.43 351.026 1031.24 352.883L1029.75 353.507ZM1025.8 341.524C1025.33 339.511 1024.94 337.42 1024.64 335.282L1026.2 335.064C1026.5 337.124 1026.88 339.168 1027.33 341.149L1025.8 341.524ZM1024.05 329.041C1023.97 327.637 1023.93 326.201 1023.93 324.766C1023.93 324.095 1023.93 323.408 1023.93 322.737H1025.49C1025.49 323.408 1025.49 324.064 1025.49 324.735C1025.49 326.139 1025.49 327.559 1025.6 328.916L1024.05 329.041ZM1025.91 316.558L1024.35 316.402C1024.57 314.343 1024.86 312.236 1025.22 310.161L1026.78 310.426C1026.36 312.502 1026.06 314.499 1025.86 316.59L1025.91 316.558ZM1028.05 304.372L1026.49 303.998C1026.99 301.985 1027.56 299.957 1028.2 297.928L1029.76 298.412C1029.06 300.456 1028.48 302.437 1028 304.403L1028.05 304.372ZM1031.79 292.561L1030.34 291.999C1031.1 290.048 1031.9 288.098 1032.85 286.21L1034.26 286.897C1033.32 288.769 1032.49 290.673 1031.74 292.654L1031.79 292.561ZM1037.16 281.435L1035.8 280.64C1036.86 278.845 1038 277.051 1039.19 275.335L1040.47 276.224C1039.25 277.94 1038.14 279.688 1037.11 281.467L1037.16 281.435ZM1044.2 271.278L1042.98 270.295C1044.29 268.734 1045.69 267.08 1047.14 265.614L1048.27 266.69C1046.8 268.157 1045.43 269.717 1044.15 271.309L1044.2 271.278ZM1052.68 262.29L1051.64 261.136C1053.2 259.747 1054.76 258.374 1056.43 257.047L1057.4 258.28C1055.73 259.606 1054.13 260.964 1052.64 262.321L1052.68 262.29ZM1062.37 254.582L1061.48 253.287C1063.18 252.117 1064.96 250.962 1066.77 249.87L1067.57 251.196C1065.76 252.304 1064.07 253.443 1062.33 254.613L1062.37 254.582ZM1072.97 248.138L1072.23 246.765C1074.08 245.782 1075.98 244.846 1077.88 243.972L1078.54 245.392C1076.56 246.281 1074.73 247.217 1072.92 248.169L1072.97 248.138ZM1084.25 242.958L1083.67 241.491C1085.64 240.726 1087.62 239.931 1089.59 239.353L1090.08 240.914C1088.1 241.507 1086.14 242.224 1084.2 242.989L1084.25 242.958Z" fill="#263238"/>
                        <path d="M1096.3 239.009L1095.91 237.448C1097.84 236.949 1099.03 236.731 1099.03 236.731L1099.31 238.291C1099.31 238.291 1098.18 238.525 1096.3 239.009Z" fill="#263238"/>
                        <path d="M1123.86 228.929C1119.88 216.603 1093.23 221.034 1098.43 237.152C1103.62 253.27 1127.84 241.271 1123.86 228.929Z" fill="#263238"/>
                        <path d="M1083.94 223.999C1084.14 218.584 1091.67 214.418 1102.31 216.338C1112.95 218.257 1122.95 225.434 1122.95 225.434C1122.95 225.434 1112.45 231.8 1101.7 232.971C1090.95 234.141 1083.74 229.398 1083.94 223.999Z" fill="#EBEBEB"/>
                        <path d="M1122.93 225.402C1117.4 225.402 1111.9 225.246 1106.39 225.075C1100.88 224.903 1095.36 224.622 1089.85 224.185C1095.37 224.185 1100.89 224.326 1106.4 224.497C1111.91 224.669 1117.43 224.95 1122.93 225.402Z" fill="#263238"/>
                        <path d="M1094.63 219.178C1097.77 220.678 1100.73 222.526 1103.45 224.686C1101.88 223.95 1100.36 223.116 1098.89 222.19C1097.42 221.27 1095.99 220.264 1094.63 219.178V219.178Z" fill="#263238"/>
                        <path d="M1109.08 224.888C1106.26 227.175 1103.2 229.153 1099.96 230.786C1102.79 228.495 1105.87 226.518 1109.13 224.888H1109.08Z" fill="#263238"/>
                        <path d="M1110.71 221.847C1112.28 222.603 1113.66 223.714 1114.73 225.092C1113.95 224.721 1113.21 224.254 1112.53 223.703C1111.86 223.156 1111.24 222.533 1110.71 221.847V221.847Z" fill="#263238"/>
                        <path d="M1094.07 256.063C1097.4 260.338 1105.93 259.309 1113.44 251.538C1120.94 243.768 1124.92 232.081 1124.92 232.081C1124.92 232.081 1112.63 233.017 1103.25 238.322C1093.87 243.627 1090.73 251.772 1094.07 256.063Z" fill="#EBEBEB"/>
                        <path d="M1124.91 232.081C1120.41 235.201 1116.04 238.665 1111.66 242.02C1107.27 245.375 1102.98 248.839 1098.79 252.412C1103.28 249.291 1107.65 245.843 1112.02 242.488C1116.39 239.134 1120.65 235.67 1124.91 232.081Z" fill="#263238"/>
                        <path d="M1105.53 253.646C1106.36 252.13 1107.11 250.567 1107.76 248.965C1108.42 247.358 1108.99 245.711 1109.44 244.034C1108.61 245.548 1107.86 247.111 1107.21 248.715C1106.55 250.324 1105.99 251.971 1105.53 253.646Z" fill="#263238"/>
                        <path d="M1114.01 240.599C1110.36 240.404 1106.7 240.598 1103.09 241.177C1104.9 241.286 1106.73 241.286 1108.55 241.177C1110.38 241.087 1112.2 240.895 1114.01 240.599V240.599Z" fill="#263238"/>
                        <path d="M1117.01 242.145C1117.42 241.375 1117.75 240.558 1117.98 239.711C1118.21 238.871 1118.34 238.007 1118.38 237.137C1117.55 238.681 1117.08 240.394 1117.01 242.145V242.145Z" fill="#263238"/>
                        <path d="M1123.87 228.928C1122.99 229.214 1122.04 229.232 1121.15 228.98C1120.26 228.728 1119.46 228.217 1118.86 227.512C1118.26 226.807 1117.88 225.939 1117.77 225.019C1117.67 224.099 1117.83 223.168 1118.26 222.343C1118.68 221.518 1119.34 220.837 1120.15 220.386C1120.95 219.936 1121.88 219.735 1122.8 219.81C1123.73 219.886 1124.61 220.233 1125.33 220.809C1126.06 221.385 1126.6 222.163 1126.88 223.046C1127.26 224.225 1127.15 225.506 1126.59 226.609C1126.03 227.712 1125.05 228.546 1123.87 228.928Z" fill="#455A64"/>
                        <path d="M1126.74 237.839C1125.86 238.124 1124.92 238.141 1124.03 237.889C1123.14 237.637 1122.34 237.126 1121.74 236.422C1121.14 235.717 1120.76 234.85 1120.65 233.931C1120.55 233.012 1120.71 232.081 1121.13 231.256C1121.55 230.432 1122.21 229.751 1123.02 229.299C1123.83 228.848 1124.75 228.646 1125.67 228.719C1126.6 228.792 1127.48 229.137 1128.2 229.711C1128.93 230.284 1129.47 231.06 1129.75 231.941C1129.94 232.526 1130.02 233.142 1129.97 233.755C1129.92 234.368 1129.75 234.966 1129.47 235.514C1129.19 236.061 1128.81 236.549 1128.34 236.948C1127.87 237.347 1127.33 237.649 1126.74 237.839V237.839Z" fill="#455A64"/>
                        <path d="M615.137 233.865C614.389 241.032 611.664 247.85 607.267 253.558C602.87 259.267 596.973 263.641 590.234 266.193C583.496 268.746 576.181 269.375 569.105 268.011C562.029 266.648 555.472 263.345 550.164 258.471L530.707 261.327L540.443 244.506C538.217 239.033 537.267 233.125 537.666 227.23C538.064 221.335 539.802 215.608 542.745 210.484C545.688 205.361 549.76 200.976 554.652 197.662C559.544 194.348 565.127 192.193 570.976 191.359C576.826 190.526 582.788 191.036 588.411 192.852C594.034 194.668 599.168 197.742 603.425 201.839C607.683 205.937 610.95 210.951 612.979 216.5C615.008 222.049 615.746 227.988 615.137 233.865V233.865Z" fill="white"/>
                        <path d="M615.115 233.864C614.383 241.027 611.683 247.847 607.314 253.57C605.179 256.465 602.604 259.008 599.684 261.107C596.827 263.285 593.675 265.045 590.322 266.334C586.967 267.655 583.442 268.496 579.852 268.831C578.057 268.992 576.253 269.028 574.453 268.94C572.647 268.893 570.847 268.706 569.07 268.378C561.899 267.059 555.237 263.768 549.831 258.876L550.284 259.016L530.857 261.996L529.438 262.215L530.155 260.966L539.829 244.115V244.786C537.547 239.212 536.576 233.187 536.993 227.178C537.409 221.169 539.202 215.337 542.232 210.131C545.259 204.942 549.419 200.504 554.403 197.149C559.378 193.839 565.039 191.698 570.959 190.887C576.88 190.077 582.908 190.617 588.59 192.468C594.212 194.381 599.335 197.526 603.584 201.674C607.825 205.811 611.067 210.861 613.065 216.438C615.063 222.015 615.764 227.975 615.115 233.864ZM615.115 233.864C615.746 228.004 615.021 222.077 612.998 216.542C610.974 211.007 607.705 206.01 603.444 201.939C599.182 197.868 594.042 194.83 588.42 193.061C582.799 191.291 576.845 190.838 571.02 191.735C565.254 192.588 559.76 194.756 554.965 198.069C550.21 201.41 546.238 205.743 543.324 210.771C540.456 215.809 538.765 221.432 538.378 227.216C537.998 233.041 538.937 238.875 541.124 244.287L541.265 244.63L541.078 244.957L531.279 261.747L530.592 260.717L550.065 257.986H550.33L550.518 258.158C555.723 263.003 562.174 266.304 569.148 267.691C570.886 268.046 572.65 268.26 574.422 268.331C576.193 268.456 577.971 268.456 579.743 268.331C583.295 268.045 586.791 267.273 590.134 266.038C593.485 264.818 596.639 263.115 599.496 260.982C602.405 258.9 604.982 256.391 607.142 253.539C611.568 247.844 614.328 241.033 615.115 233.864Z" fill="#263238"/>
                        <path d="M557.436 247.953C557.406 247.437 557.483 246.92 557.661 246.434C557.839 245.948 558.115 245.504 558.472 245.13C558.829 244.755 559.26 244.458 559.736 244.256C560.213 244.055 560.726 243.954 561.243 243.959C562.303 243.959 563.319 244.38 564.068 245.129C564.817 245.878 565.238 246.894 565.238 247.953C565.238 249.013 564.817 250.029 564.068 250.778C563.319 251.527 562.303 251.948 561.243 251.948C560.726 251.953 560.213 251.852 559.736 251.65C559.26 251.449 558.829 251.152 558.472 250.777C558.115 250.403 557.839 249.959 557.661 249.473C557.483 248.987 557.406 248.47 557.436 247.953V247.953ZM558.996 238.732L558.091 207.775H564.333L563.428 238.732H558.996Z" fill="#FFC727"/>
                        <path d="M572.288 247.953C572.258 247.438 572.334 246.922 572.511 246.438C572.688 245.953 572.963 245.51 573.319 245.135C573.674 244.761 574.102 244.463 574.577 244.261C575.052 244.059 575.563 243.956 576.079 243.959C577.139 243.959 578.155 244.38 578.904 245.129C579.653 245.878 580.074 246.894 580.074 247.953C580.074 249.013 579.653 250.029 578.904 250.778C578.155 251.527 577.139 251.948 576.079 251.948C575.563 251.951 575.052 251.848 574.577 251.646C574.102 251.443 573.674 251.146 573.319 250.772C572.963 250.397 572.688 249.954 572.511 249.469C572.334 248.985 572.258 248.469 572.288 247.953V247.953ZM573.848 238.732L572.99 207.775H579.231L578.326 238.732H573.848Z" fill="#FFC727"/>
                        <path d="M587.088 247.953C587.058 247.437 587.135 246.92 587.313 246.434C587.491 245.948 587.768 245.504 588.125 245.13C588.482 244.755 588.912 244.458 589.389 244.256C589.865 244.055 590.378 243.954 590.896 243.959C591.955 243.959 592.971 244.38 593.72 245.129C594.469 245.878 594.89 246.894 594.89 247.953C594.89 249.013 594.469 250.029 593.72 250.778C592.971 251.527 591.955 251.948 590.896 251.948C590.378 251.953 589.865 251.852 589.389 251.65C588.912 251.449 588.482 251.152 588.125 250.777C587.768 250.403 587.491 249.959 587.313 249.473C587.135 248.987 587.058 248.47 587.088 247.953ZM588.649 238.732L587.744 207.775H593.985L593.096 238.732H588.649Z" fill="#FFC727"/>
                        <path d="M601.779 532.191V534.403H591.831V532.191L594.961 531.453V511.556L591.831 510.818V508.803L599.566 508.606L611.728 529.204V511.556L608.597 510.818V508.803L618.168 508.606V510.818L615.038 511.556V534.403H610.432L598.271 514.11V531.453L601.779 532.191ZM633.64 508.246C636.002 508.246 638.041 508.767 639.756 509.811C641.483 510.854 642.797 512.347 643.696 514.29C644.608 516.233 645.063 518.518 645.063 521.145C645.063 523.819 644.554 526.188 643.534 528.251C642.515 530.314 641.082 531.915 639.235 533.054C637.4 534.193 635.295 534.763 632.92 534.763C629.31 534.763 626.534 533.642 624.591 531.399C622.648 529.156 621.676 525.918 621.676 521.684C621.676 519.01 622.162 516.653 623.133 514.614C624.105 512.575 625.49 511.004 627.289 509.901C629.1 508.797 631.217 508.246 633.64 508.246ZM633.46 511.376C631.001 511.376 629.124 512.204 627.829 513.859C626.546 515.514 625.904 518.062 625.904 521.504C625.904 524.851 626.504 527.375 627.703 529.078C628.914 530.781 630.713 531.633 633.1 531.633C635.559 531.633 637.46 530.769 638.803 529.042C640.158 527.315 640.836 524.743 640.836 521.325C640.836 518.038 640.206 515.562 638.947 513.895C637.699 512.216 635.87 511.376 633.46 511.376ZM660.553 511.556L657.423 510.818V508.803L664.421 508.606H669.026C672.66 508.606 675.503 509.697 677.553 511.88C679.604 514.051 680.63 517.139 680.63 521.145C680.63 523.819 680.132 526.158 679.137 528.161C678.153 530.164 676.738 531.705 674.891 532.784C673.044 533.864 670.909 534.403 668.486 534.403H657.423V532.191L660.553 531.453V511.556ZM668.666 531.453C671.077 531.453 672.966 530.613 674.333 528.934C675.712 527.255 676.402 524.719 676.402 521.325C676.402 518.014 675.736 515.562 674.405 513.967C673.086 512.359 671.233 511.556 668.846 511.556H664.421V531.453H668.666ZM694.284 508.803L697.972 508.606L706.158 531.489L709.216 532.191V534.403H698.53V532.191L701.948 531.489L700.545 527.405H690.974L689.535 531.489L692.989 532.191V534.403H682.861V532.191L685.883 531.489L694.284 508.803ZM695.831 513.373L691.964 524.455H699.555L695.831 513.373ZM711.213 532.191L714.901 531.453V511.556H710.116L709.198 515.244H706.787V508.606H726.882V515.244H724.49L723.554 511.556H718.769V531.453L722.457 532.191V534.403H711.213V532.191ZM738.864 508.803L742.552 508.606L750.737 531.489L753.796 532.191V534.403H743.109V532.191L746.528 531.489L745.124 527.405H735.554L734.114 531.489L737.568 532.191V534.403H727.44V532.191L730.462 531.489L738.864 508.803ZM740.411 513.373L736.543 524.455H744.135L740.411 513.373ZM779.395 519.849V522.8H770.922V531.453L774.61 532.191V534.403H763.924V532.191L767.054 531.453V511.556L763.924 510.818V508.803L770.922 508.606H782.166V514.686H779.773L778.838 511.556H770.922V519.849H779.395ZM797.637 508.246C800 508.246 802.039 508.767 803.754 509.811C805.481 510.854 806.794 512.347 807.694 514.29C808.605 516.233 809.061 518.518 809.061 521.145C809.061 523.819 808.551 526.188 807.532 528.251C806.512 530.314 805.079 531.915 803.232 533.054C801.397 534.193 799.292 534.763 796.918 534.763C793.308 534.763 790.531 533.642 788.588 531.399C786.645 529.156 785.674 525.918 785.674 521.684C785.674 519.01 786.16 516.653 787.131 514.614C788.103 512.575 789.488 511.004 791.287 509.901C793.098 508.797 795.215 508.246 797.637 508.246ZM797.457 511.376C794.999 511.376 793.122 512.204 791.827 513.859C790.543 515.514 789.902 518.062 789.902 521.504C789.902 524.851 790.501 527.375 791.701 529.078C792.912 530.781 794.711 531.633 797.098 531.633C799.556 531.633 801.457 530.769 802.801 529.042C804.156 527.315 804.833 524.743 804.833 521.325C804.833 518.038 804.204 515.562 802.944 513.895C801.697 512.216 799.868 511.376 797.457 511.376ZM835.776 523.897C835.776 527.507 835.015 530.224 833.492 532.047C831.968 533.858 829.354 534.763 825.648 534.763C822.134 534.763 819.627 533.924 818.128 532.245C816.629 530.565 815.879 527.969 815.879 524.455V511.556L812.749 510.818V508.803L823.255 508.606V510.818L819.747 511.556V524.455C819.747 526.302 819.957 527.741 820.377 528.772C820.797 529.804 821.444 530.541 822.32 530.985C823.207 531.417 824.377 531.633 825.828 531.633C827.375 531.633 828.58 531.387 829.444 530.895C830.319 530.404 830.949 529.6 831.333 528.485C831.717 527.369 831.909 525.84 831.909 523.897V511.556L828.4 510.818V508.803L838.907 508.606V510.818L835.776 511.556V523.897ZM851.806 532.191V534.403H841.857V532.191L844.987 531.453V511.556L841.857 510.818V508.803L849.593 508.606L861.754 529.204V511.556L858.624 510.818V508.803L868.195 508.606V510.818L865.064 511.556V534.403H860.459L848.297 514.11V531.453L851.806 532.191ZM874.275 511.556L871.145 510.818V508.803L878.143 508.606H882.749C886.383 508.606 889.225 509.697 891.276 511.88C893.327 514.051 894.352 517.139 894.352 521.145C894.352 523.819 893.854 526.158 892.859 528.161C891.875 530.164 890.46 531.705 888.613 532.784C886.766 533.864 884.631 534.403 882.209 534.403H871.145V532.191L874.275 531.453V511.556ZM882.389 531.453C884.799 531.453 886.688 530.613 888.056 528.934C889.435 527.255 890.124 524.719 890.124 521.325C890.124 518.014 889.459 515.562 888.128 513.967C886.808 512.359 884.955 511.556 882.569 511.556H878.143V531.453H882.389Z" fill="#333333"/>
                        </svg>