<svg width="24" height="28" viewBox="0 0 24 28" fill="none" xmlns="http://www.w3.org/2000/svg">
<path d="M24 24.6641V5.9974C24 4.52673 22.804 3.33073 21.3333 3.33073H18.6667V0.664062H16V3.33073H8V0.664062H5.33333V3.33073H2.66667C1.196 3.33073 0 4.52673 0 5.9974V24.6641C0 26.1347 1.196 27.3307 2.66667 27.3307H21.3333C22.804 27.3307 24 26.1347 24 24.6641ZM8 21.9974H5.33333V19.3307H8V21.9974ZM8 16.6641H5.33333V13.9974H8V16.6641ZM13.3333 21.9974H10.6667V19.3307H13.3333V21.9974ZM13.3333 16.6641H10.6667V13.9974H13.3333V16.6641ZM18.6667 21.9974H16V19.3307H18.6667V21.9974ZM18.6667 16.6641H16V13.9974H18.6667V16.6641ZM21.3333 9.9974H2.66667V7.33073H21.3333V9.9974Z" fill="#68BFBB"/>
</svg>
