<svg width="26" height="24" viewBox="0 0 26 24" fill="none" xmlns="http://www.w3.org/2000/svg">
<path d="M25.3001 22.6943L18.9055 16.5969C20.5801 14.834 21.609 12.5024 21.609 9.93682C21.6082 4.44852 16.943 0 11.1879 0C5.43271 0 0.767578 4.44852 0.767578 9.93682C0.767578 15.4251 5.43271 19.8736 11.1879 19.8736C13.6745 19.8736 15.9552 19.0402 17.7466 17.6546L24.166 23.776C24.4788 24.0746 24.9866 24.0746 25.2994 23.776C25.6129 23.4775 25.6129 22.9929 25.3001 22.6943ZM11.1879 18.3448C6.31837 18.3448 2.37089 14.5804 2.37089 9.93682C2.37089 5.29321 6.31837 1.52884 11.1879 1.52884C16.0574 1.52884 20.0049 5.29321 20.0049 9.93682C20.0049 14.5804 16.0574 18.3448 11.1879 18.3448Z" fill="#344054"/>
</svg>
